<?xml version="1.0" standalone="no"?>
<!DOCTYPE svg PUBLIC "-//W3C//DTD SVG 20010904//EN"
 "http://www.w3.org/TR/2001/REC-SVG-20010904/DTD/svg10.dtd">
<svg version="1.0" xmlns="http://www.w3.org/2000/svg"
 width="32" height="32" viewBox="0 0 32 32"
 preserveAspectRatio="xMidYMid meet">
<metadata>
Created by potrace 1.15, written by Peter Selinger 2001-2017
</metadata>
<g transform="translate(0.000000,894.000000) scale(0.100000,-0.100000)"
fill="#000000" stroke="none">
<path d="M1645 8932 c-28 -5 -100 -32 -165 -64 -150 -73 -392 -168 -665 -261
-326 -111 -646 -246 -748 -315 -50 -35 -73 -78 -63 -119 4 -17 40 -60 88 -106
62 -59 109 -92 193 -137 132 -71 215 -94 400 -115 263 -29 540 -66 605 -81
191 -44 470 -148 612 -229 53 -30 107 -55 120 -55 31 0 64 -35 130 -140 86
-137 85 -136 107 -123 22 14 33 4 76 -72 15 -27 39 -63 52 -78 14 -18 23 -42
23 -63 0 -46 25 -45 40 2 10 30 10 37 -4 47 -14 11 -56 142 -56 176 0 11 3 11
17 0 15 -13 16 -11 10 11 -4 14 -7 31 -7 38 0 17 -39 15 -46 -2 -3 -8 -1 -37
4 -65 5 -28 6 -51 3 -51 -9 0 -114 180 -108 186 2 2 16 -5 30 -17 41 -32 32
-6 -28 82 -47 69 -90 166 -79 178 14 16 212 -158 226 -199 3 -8 9 -12 12 -8
22 20 -110 188 -147 188 -10 0 -41 23 -69 50 -28 28 -54 48 -56 45 -3 -3 2
-13 11 -23 28 -30 18 -59 -10 -31 -6 6 -17 9 -24 7 -8 -3 -1 -17 20 -40 37
-43 42 -64 9 -47 -34 18 -127 109 -133 130 -4 13 -16 19 -35 19 -16 0 -32 5
-35 10 -3 6 -21 10 -40 10 -34 0 -84 32 -167 106 -47 42 -87 68 -94 61 -3 -3
31 -35 75 -72 71 -59 99 -95 73 -95 -5 0 -46 22 -90 49 -87 52 -108 53 -43 1
33 -26 239 -130 257 -130 4 0 4 7 0 15 -13 36 36 0 78 -56 l26 -37 -21 -5
c-24 -7 -50 5 -153 69 -39 24 -77 44 -85 44 -8 0 -46 20 -85 44 -72 45 -186
99 -193 93 -2 -3 13 -17 32 -32 20 -15 34 -29 32 -31 -2 -3 -39 7 -81 21 -104
35 -208 55 -591 115 -181 28 -334 54 -339 57 -4 3 0 11 10 17 13 7 113 11 306
11 157 0 289 3 292 6 4 3 -1 12 -10 20 -12 10 -83 14 -312 16 -341 4 -362 6
-362 33 0 14 -11 23 -40 31 -31 9 -37 15 -29 25 20 24 47 26 69 4 22 -22 50
-24 57 -3 3 7 -12 19 -31 27 -20 8 -36 20 -36 25 0 16 -21 13 -41 -5 -40 -36
-52 20 -19 86 24 47 25 63 5 80 -8 7 -15 21 -15 32 0 12 -12 24 -35 34 -22 9
-35 21 -35 32 0 26 11 34 27 20 11 -9 20 -4 44 25 17 21 36 37 43 37 7 0 48
15 92 34 43 19 173 64 289 100 116 36 304 99 418 140 192 68 208 72 217 55 15
-26 13 -46 -2 -31 -20 20 -38 14 -92 -33 -29 -25 -61 -45 -70 -45 -45 0 -146
-90 -146 -130 0 -25 8 -25 36 1 22 21 134 54 134 40 0 -4 -16 -26 -36 -50 -20
-23 -34 -45 -30 -48 7 -8 90 56 117 91 19 24 19 26 3 26 -17 0 -17 1 -1 17 16
16 20 16 69 -2 88 -31 218 -18 218 22 0 18 -38 93 -58 116 -10 11 -30 17 -59
17 -47 0 -53 8 -24 34 15 14 29 16 63 11 28 -4 66 -1 103 9 32 8 62 13 67 10
18 -11 7 -45 -17 -54 -47 -18 -29 -32 31 -24 41 5 55 3 50 -4 -4 -6 0 -25 8
-41 15 -27 14 -29 -7 -35 -12 -3 -35 -6 -50 -6 -32 0 -67 -16 -67 -30 0 -6 22
-24 49 -40 27 -17 52 -37 55 -46 3 -8 16 -19 28 -24 18 -7 7 -9 -43 -9 -49 -1
-73 -6 -90 -20 -19 -15 -175 -51 -220 -51 -4 0 -15 -7 -24 -16 -14 -15 -18
-15 -40 0 -20 13 -25 25 -25 56 0 28 -4 40 -14 40 -20 0 -74 -47 -81 -71 -5
-16 -13 -20 -31 -16 -32 6 -30 -6 6 -37 53 -44 95 -49 248 -32 75 9 141 21
146 26 7 7 3 10 -10 10 -12 0 -24 3 -27 7 -13 12 16 33 47 33 17 0 41 7 52 15
14 9 53 15 115 17 56 2 93 7 92 13 -1 6 17 10 40 10 50 0 107 22 107 41 0 13
55 54 72 54 3 0 1 -13 -5 -30 -14 -37 -5 -47 25 -26 12 9 35 16 51 16 36 0 58
12 126 67 89 72 124 86 229 91 l92 4 11 -30 c6 -17 19 -34 30 -37 11 -4 31
-24 45 -46 15 -24 32 -39 44 -39 13 0 20 -7 20 -18 0 -11 7 -33 15 -50 15 -29
14 -36 -10 -105 -17 -51 -25 -94 -25 -143 0 -53 -7 -90 -30 -152 -32 -87 -37
-131 -19 -163 9 -17 5 -22 -25 -34 -20 -9 -48 -16 -62 -17 -26 -3 -26 -3 -20
-65 11 -103 51 -242 101 -348 55 -116 70 -115 25 1 -39 101 -57 172 -66 257
-5 46 -11 67 -20 67 -15 0 -18 27 -8 54 17 43 53 -1 55 -67 1 -25 3 -22 9 16
5 27 14 54 20 62 20 25 62 27 105 5 51 -26 78 -27 70 -1 -10 31 13 34 32 4
l18 -27 5 28 c10 57 66 60 81 5 5 -18 7 -14 8 19 1 44 10 52 31 27 7 -8 26
-15 42 -15 16 0 38 -5 49 -11 37 -19 38 -5 8 70 -16 41 -27 76 -24 80 8 7 19
-10 75 -117 75 -142 104 -110 60 63 -11 43 -18 80 -16 82 2 3 19 -24 38 -59
26 -50 38 -63 55 -61 16 2 25 -8 41 -45 24 -57 42 -139 42 -194 0 -33 -3 -38
-13 -29 -21 17 -27 3 -27 -63 0 -34 -3 -72 -7 -85 l-6 -23 -12 28 c-11 27 -13
23 -39 -80 -15 -60 -24 -111 -21 -114 3 -3 25 13 48 36 24 23 46 42 49 42 4 0
-7 -26 -23 -57 -19 -36 -29 -68 -27 -87 4 -45 22 -38 29 12 9 69 25 72 31 4 6
-63 23 -106 38 -97 5 3 6 38 3 77 -7 82 10 89 21 8 4 -31 16 -60 30 -77 29
-33 45 -24 29 16 -9 24 -7 32 6 45 24 25 24 337 -1 381 -22 40 -32 98 -23 132
l7 28 19 -37 c11 -21 26 -66 34 -100 14 -62 58 -468 51 -475 -2 -2 -9 10 -16
27 -25 61 -40 22 -20 -52 11 -36 42 -68 67 -68 16 0 17 58 4 162 -18 138 -23
228 -13 228 12 0 18 -33 37 -205 18 -167 34 -243 46 -224 5 8 9 32 10 54 l1
40 10 -40 c25 -103 39 -145 50 -145 8 0 9 25 4 83 -8 101 5 88 34 -38 12 -50
25 -97 30 -105 17 -27 21 -2 10 65 -6 37 -8 70 -6 73 9 8 48 -87 54 -130 l5
-39 23 22 24 22 0 -34 c0 -65 9 -80 44 -77 30 3 31 4 41 75 6 39 13 75 17 79
4 4 16 -14 27 -40 19 -43 30 -54 44 -40 3 3 0 22 -8 43 -7 20 -16 61 -20 91
-4 30 -13 70 -21 89 -17 42 -17 46 0 32 7 -6 28 -50 46 -97 32 -85 72 -146 86
-132 12 13 -47 177 -81 227 -44 63 -76 129 -125 251 -57 144 -75 176 -110 197
-30 18 -208 213 -194 213 4 0 38 -25 76 -56 112 -91 183 -191 308 -434 106
-205 170 -308 198 -318 26 -8 10 33 -37 97 -62 83 -107 166 -176 320 -29 67
-74 150 -98 184 -68 94 -283 278 -344 293 -24 7 -53 50 -53 80 0 10 -18 48
-40 85 -22 37 -40 71 -40 75 0 19 91 -83 109 -122 12 -26 53 -71 108 -120 145
-130 272 -256 309 -306 19 -25 48 -84 64 -130 17 -46 46 -114 65 -153 61 -120
200 -274 226 -248 7 7 -3 26 -36 63 -42 48 -65 86 -65 111 0 19 20 8 77 -42
57 -51 111 -89 126 -89 19 0 4 38 -21 52 -35 21 -232 224 -232 239 0 6 37 -22
83 -63 106 -97 164 -138 194 -138 34 0 28 16 -14 44 -52 32 -138 114 -130 123
4 3 38 -15 76 -40 37 -26 73 -47 78 -47 6 0 14 11 17 25 4 16 13 25 26 25 10
0 22 5 25 10 11 17 -11 36 -57 49 -74 23 -169 101 -122 101 8 0 55 -20 103
-45 48 -25 90 -45 93 -45 3 0 11 14 17 30 6 18 17 30 28 30 39 1 -19 29 -93
45 -40 9 -81 23 -91 31 -22 16 -26 16 122 18 111 1 174 13 210 40 28 20 17 26
-35 16 -25 -5 -115 -9 -200 -10 -85 0 -162 -4 -170 -10 -13 -8 -13 -9 0 -14 8
-2 22 -7 30 -9 8 -3 4 -6 -11 -6 -14 -1 -45 13 -68 31 -44 32 -44 32 -23 49
25 20 22 24 -56 63 -33 17 -61 40 -73 60 -11 19 -51 61 -89 96 -39 34 -70 68
-70 75 0 17 -52 57 -170 130 -52 33 -255 165 -450 293 -195 129 -393 256 -440
282 -47 26 -114 66 -150 89 -75 49 -203 112 -274 136 -27 8 -142 32 -255 51
-185 32 -229 36 -431 39 -124 2 -247 0 -275 -3z m270 -187 c-34 -16 -74 -20
-59 -6 10 10 40 19 69 19 15 0 12 -3 -10 -13z m248 8 c-7 -2 -19 -2 -25 0 -7
3 -2 5 12 5 14 0 19 -2 13 -5z m-77 -18 c-11 -8 -31 -15 -44 -15 -21 0 -22 2
-12 15 7 8 27 15 44 15 29 -1 30 -1 12 -15z m194 -3 c0 -20 -83 -72 -114 -72
-27 0 2 59 32 66 15 3 32 7 37 9 20 7 45 5 45 -3z m-860 -43 c-6 -10 -17 -19
-25 -19 -19 0 -19 9 1 31 21 23 38 14 24 -12z m119 -5 c-6 -8 -15 -14 -20 -14
-14 0 -11 28 4 33 20 7 29 -4 16 -19z m1532 -183 c30 -24 70 -101 76 -149 4
-29 0 -43 -17 -62 -12 -14 -18 -19 -14 -11 4 9 2 12 -7 9 -14 -5 -14 -12 -2
-69 4 -22 -6 -38 -64 -99 -37 -40 -81 -79 -98 -86 -16 -7 -55 -38 -85 -68 -30
-31 -58 -56 -62 -56 -4 0 -8 14 -8 31 0 32 26 60 134 146 23 18 49 49 58 70 9
21 17 30 17 21 1 -25 13 -22 41 7 30 32 23 77 -25 157 l-35 60 57 -41 58 -41
3 34 c2 19 -4 47 -13 63 -8 15 -19 35 -24 43 -36 66 -34 76 10 41z m-1724
-117 c-10 -10 -37 16 -37 34 0 13 4 12 22 -5 12 -13 19 -25 15 -29z m2091 -72
c2 -7 -3 -12 -12 -12 -9 0 -16 7 -16 16 0 17 22 14 28 -4z m-3209 -41 c21 -13
6 -39 -34 -58 -42 -20 -52 -13 -30 21 9 14 14 30 10 36 -8 12 34 13 54 1z
m3380 -86 c16 5 19 3 15 -9 -9 -24 -31 -26 -58 -5 -33 26 -34 45 -1 23 14 -9
32 -13 44 -9z m-3249 2 c0 -20 -69 -96 -70 -77 0 14 55 90 66 90 2 0 4 -6 4
-13z m3060 -22 c18 -34 3 -46 -21 -16 -22 27 -24 41 -6 41 8 0 20 -11 27 -25z
m-29 -83 c18 -28 20 -38 10 -58 -12 -27 -31 -32 -31 -9 0 13 -8 39 -45 140 -9
24 34 -23 66 -73z m351 -39 c30 -32 16 -39 -27 -13 -31 19 -55 47 -55 65 0 10
59 -28 82 -52z m-147 -90 c43 -73 46 -81 40 -130 -4 -31 -2 -60 5 -73 6 -12 9
-26 7 -33 -7 -18 -37 58 -37 93 0 16 -18 73 -40 125 -21 52 -35 95 -30 95 5 0
30 -35 55 -77z m227 -31 c53 -42 91 -87 86 -102 -2 -6 -37 23 -78 65 -80 81
-84 98 -8 37z m-316 -84 c4 -28 3 -39 -3 -33 -13 13 -33 87 -32 116 1 22 2 21
15 -8 7 -17 16 -51 20 -75z m54 32 c13 -31 7 -51 -9 -34 -15 14 -25 64 -13 64
5 0 15 -14 22 -30z m377 -320 c96 -111 144 -212 58 -122 -49 52 -60 41 -24
-25 16 -29 -3 -13 -75 62 -105 109 -126 143 -44 71 29 -25 56 -46 61 -46 5 0
-20 36 -55 80 -92 117 -158 211 -158 224 1 12 137 -128 237 -244z m247 27 c13
-29 28 -63 31 -77 l7 -25 -26 24 c-21 20 -112 179 -124 216 -9 30 91 -94 112
-138z m-474 4 c-1 -13 -3 -13 -15 3 -19 26 -19 42 0 26 8 -7 15 -20 15 -29z
m560 -22 c6 -11 10 -24 8 -30 -4 -13 -48 19 -48 37 0 21 28 17 40 -7z m-487
-102 c40 -60 150 -304 144 -321 -4 -11 -187 345 -187 363 0 19 7 12 43 -42z
m-1670 32 c45 -24 105 -80 114 -106 10 -29 -1 -93 -16 -93 -4 0 -16 18 -26 40
-10 23 -38 66 -62 97 -54 70 -57 86 -10 62z m1376 -51 c0 -31 -3 -37 -8 -24
-7 18 -3 66 5 66 2 0 4 -19 3 -42z m423 -62 c57 -71 96 -155 124 -264 49 -194
23 -188 -41 11 -37 113 -59 163 -110 245 -91 145 -86 146 27 8z m-347 -94
c-10 -11 -25 22 -25 55 0 18 6 56 13 85 l12 53 3 -94 c1 -51 0 -96 -3 -99z
m673 96 c30 -46 66 -127 58 -135 -2 -2 -22 26 -44 64 -61 104 -71 154 -14 71z
m-434 -92 c10 -21 20 -59 22 -85 l4 -46 -14 35 c-7 19 -23 59 -35 88 -25 63
-7 69 23 8z m256 -19 c0 -7 -12 1 -25 16 -14 15 -25 33 -25 40 0 7 12 -1 25
-16 14 -15 25 -33 25 -40z m14 -103 c9 -23 7 -46 -3 -40 -11 7 -21 56 -11 56
4 0 11 -7 14 -16z"/>
<path d="M2508 8634 c-9 -9 -31 -18 -48 -20 -40 -5 -91 -36 -125 -75 -28 -34
-33 -59 -10 -59 8 0 15 9 15 20 0 26 38 27 83 3 27 -15 29 -18 12 -21 -33 -5
-66 -25 -77 -45 -9 -18 -6 -18 49 -12 32 4 66 9 76 11 35 10 16 -14 -33 -40
-53 -29 -57 -35 -38 -54 16 -16 28 -15 28 3 0 8 8 15 18 15 9 0 35 3 57 6 l40
5 -27 -16 c-26 -15 -82 -85 -74 -93 2 -2 14 3 26 10 19 11 24 10 41 -11 25
-30 24 -40 -5 -50 -35 -14 -37 -33 -10 -91 28 -61 28 -60 9 -60 -8 0 -15 -6
-15 -12 0 -7 -4 -51 -10 -96 -7 -66 -6 -90 5 -115 l13 -32 1 27 c2 64 41 29
41 -36 0 -22 7 -43 19 -55 10 -10 24 -41 30 -69 13 -52 35 -91 45 -81 4 3 0
25 -8 48 -9 22 -18 76 -22 119 -4 42 -13 92 -20 111 -17 40 -17 44 -4 36 14
-9 67 22 84 48 8 12 18 40 22 62 3 22 13 52 20 67 12 24 12 27 0 22 -12 -5
-12 0 -1 33 19 50 19 270 1 345 -17 74 -37 102 -94 139 -51 33 -90 37 -114 13z
m-38 -99 c-14 -16 -40 -20 -40 -6 0 10 17 19 39 20 11 1 11 -2 1 -14z m109
-499 c8 -10 9 -16 1 -21 -13 -8 -30 3 -30 21 0 18 14 18 29 0z m11 -233 c0
-21 -3 -24 -9 -14 -5 8 -7 20 -4 28 8 21 13 15 13 -14z"/>
<path d="M1075 8381 c-30 -15 -35 -20 -19 -20 12 -1 32 -10 45 -21 l24 -19
-38 -1 c-44 0 -42 -15 4 -24 18 -3 29 -9 26 -13 -8 -8 34 -38 82 -59 48 -20
101 -62 101 -79 0 -8 24 -30 53 -49 57 -36 100 -82 91 -97 -3 -5 -18 -2 -35 6
-45 24 -34 0 16 -35 59 -41 124 -70 157 -70 14 0 50 -11 80 -25 37 -17 70 -25
111 -25 53 0 57 -2 57 -24 0 -29 15 -42 66 -59 29 -10 45 -25 63 -56 17 -31
26 -40 34 -32 17 17 34 13 79 -19 52 -38 62 -30 18 15 -33 34 -33 35 -10 35
36 0 15 14 -77 53 -46 19 -105 52 -133 72 -39 28 -64 39 -108 44 -75 10 -154
51 -214 113 -27 28 -51 48 -54 46 -2 -3 16 -31 42 -62 25 -32 44 -60 41 -63
-9 -9 -95 45 -107 67 -5 10 -10 27 -10 38 0 11 -18 46 -40 78 -22 33 -40 62
-40 67 0 15 42 6 91 -19 28 -14 54 -23 57 -20 12 13 -41 54 -90 70 -65 21 -76
20 -80 -4 -3 -18 -6 -18 -65 12 -35 17 -63 35 -63 40 0 12 104 1 175 -18 28
-7 61 -17 75 -20 l25 -7 -22 25 c-13 13 -23 26 -23 29 0 2 18 3 40 1 47 -5 52
5 10 20 -28 9 -29 11 -14 23 14 10 0 13 -82 17 -98 5 -159 22 -159 45 0 19 -8
21 -62 14 -54 -8 -62 -4 -41 17 19 19 -31 15 -77 -7z m236 -87 c95 -17 135
-40 54 -29 -65 8 -209 36 -214 41 -10 10 84 3 160 -12z"/>
<path d="M865 8370 c-4 -6 11 -10 39 -10 25 0 48 5 51 10 4 6 -11 10 -39 10
-25 0 -48 -4 -51 -10z"/>
<path d="M670 8350 c-11 -7 -4 -10 25 -9 31 0 36 2 20 9 -26 11 -28 11 -45 0z"/>
<path d="M923 8329 c-32 -9 -54 -29 -33 -29 15 0 80 28 80 34 0 7 -7 7 -47 -5z"/>
<path d="M803 8323 c9 -2 23 -2 30 0 6 3 -1 5 -18 5 -16 0 -22 -2 -12 -5z"/>
<path d="M1937 8260 c18 -16 51 -34 75 -41 24 -7 53 -24 65 -38 35 -42 35 -20
-1 44 -35 64 -56 82 -49 40 7 -33 -11 -33 -59 0 -50 34 -70 31 -31 -5z"/>
<path d="M792 8271 c-11 -6 -10 -10 5 -15 17 -7 17 -8 0 -21 -16 -12 -16 -13
8 -19 14 -4 25 -11 25 -17 0 -5 16 -17 36 -25 34 -14 35 -16 20 -33 -16 -17
-14 -18 36 -24 29 -4 67 -7 85 -7 17 0 38 -6 45 -13 21 -21 54 -37 77 -37 28
0 26 12 -4 42 -19 20 -39 26 -86 31 -42 4 -72 13 -98 31 -20 14 -45 26 -54 26
-24 0 -21 15 6 28 17 8 18 11 5 11 -10 1 -25 9 -35 20 -23 23 -54 33 -71 22z"/>
<path d="M588 8263 c6 -2 18 -2 25 0 6 3 1 5 -13 5 -14 0 -19 -2 -12 -5z"/>
<path d="M510 8215 c0 -8 4 -15 9 -15 5 0 14 7 21 15 10 13 9 15 -9 15 -12 0
-21 -6 -21 -15z"/>
<path d="M1950 8206 c0 -2 30 -33 67 -69 66 -64 80 -95 29 -62 -14 10 -26 15
-26 11 0 -3 20 -35 45 -72 38 -54 45 -73 45 -112 0 -36 8 -60 36 -105 20 -32
34 -60 32 -63 -3 -2 -20 8 -39 22 -37 28 -111 67 -146 78 -42 13 -24 -10 25
-33 27 -12 91 -53 143 -91 52 -37 97 -66 102 -63 10 6 -7 36 -63 113 -44 60
-80 121 -80 135 0 3 7 5 15 5 20 0 19 18 -6 64 -11 21 -18 45 -15 53 12 31
-72 151 -124 178 -29 15 -40 18 -40 11z"/>
<path d="M614 8155 c-3 -8 -3 -19 1 -25 9 -14 35 6 35 26 0 19 -29 18 -36 -1z"/>
<path d="M536 8131 c-27 -30 -16 -47 14 -23 18 15 22 24 14 32 -7 7 -15 5 -28
-9z"/>
<path d="M2341 8129 c7 -14 14 -18 21 -11 13 13 2 32 -18 32 -12 0 -13 -4 -3
-21z"/>
<path d="M736 8082 c-8 -13 11 -35 23 -28 16 10 14 36 -3 36 -8 0 -17 -4 -20
-8z"/>
<path d="M595 8039 c-4 -6 -4 -13 -1 -16 8 -8 36 5 36 17 0 13 -27 13 -35 -1z"/>
<path d="M2398 8040 c-9 -6 -24 -30 -33 -54 -15 -40 -15 -47 -1 -96 9 -30 16
-55 16 -57 0 -8 -34 -1 -60 12 l-30 16 0 -36 c0 -40 -14 -44 -46 -14 -41 38
-52 15 -12 -24 24 -25 42 -35 52 -31 10 4 40 -8 75 -30 33 -20 64 -36 71 -36
6 0 -3 20 -21 45 -18 25 -29 48 -25 52 7 7 22 0 98 -45 38 -22 44 -10 18 40
-38 74 -69 110 -91 103 -28 -9 -25 35 6 81 40 59 31 101 -17 74z"/>
<path d="M1184 8019 c-8 -14 11 -33 25 -25 6 4 11 14 11 22 0 16 -26 19 -36 3z"/>
<path d="M1309 7909 c13 -11 27 -17 30 -13 7 7 -28 34 -43 34 -6 -1 0 -10 13
-21z"/>
<path d="M7976 7865 c-112 -19 -123 -23 -130 -41 -9 -23 3 -37 19 -24 21 18
226 45 234 31 6 -9 21 -8 59 1 45 10 57 9 86 -5 22 -10 98 -22 213 -32 98 -8
232 -20 298 -26 290 -25 613 -106 865 -214 198 -86 246 -105 268 -105 39 0
252 -120 252 -142 0 -11 3 -11 -80 17 -84 29 -100 31 -80 11 19 -18 131 -56
166 -56 34 0 129 -58 196 -119 29 -26 101 -82 159 -124 158 -114 329 -269 329
-299 0 -10 -76 20 -122 49 -21 13 -50 42 -64 64 -19 31 -29 38 -37 30 -32 -32
74 -125 192 -169 80 -30 151 -83 151 -113 0 -12 10 -23 26 -29 14 -6 23 -14
20 -18 -3 -5 4 -23 15 -41 l20 -33 -25 6 c-20 5 -26 3 -26 -9 0 -15 69 -64
148 -104 50 -26 53 -36 10 -39 -43 -3 -46 -9 -14 -22 39 -14 102 -12 115 4 17
20 -22 63 -72 78 -46 13 -107 46 -107 57 0 4 16 5 35 3 47 -6 44 11 -8 47 -24
16 -50 37 -57 47 -14 15 -13 16 10 9 26 -8 189 -72 252 -99 20 -9 39 -12 42
-7 8 12 -13 27 -49 35 -41 10 -205 93 -231 117 -11 10 -28 19 -37 19 -29 0
-31 23 -4 45 44 35 33 52 -30 46 -38 -3 -94 33 -208 136 -60 54 -162 141 -225
193 -63 52 -146 122 -185 155 -176 153 -387 276 -580 339 -71 24 -157 55 -190
69 -167 71 -404 135 -615 168 -74 11 -205 31 -290 45 -107 17 -195 24 -284 24
-109 0 -132 3 -149 18 -25 22 -170 26 -281 7z"/>
<path d="M1247 7863 c-25 -7 -10 -23 21 -23 39 0 73 11 66 21 -5 9 -55 10 -87
2z"/>
<path d="M1100 7846 c42 -17 99 -21 84 -6 -6 6 -35 13 -65 15 l-54 5 35 -14z"/>
<path d="M1395 7851 c8 -14 92 -44 107 -38 7 3 -7 14 -32 26 -47 21 -85 28
-75 12z"/>
<path d="M3154 7846 c-3 -9 -1 -36 5 -61 6 -24 11 -90 12 -147 1 -91 2 -98 11
-60 5 24 16 46 24 49 19 7 18 26 -6 130 -22 93 -35 118 -46 89z"/>
<path d="M7395 7836 c-191 -31 -354 -67 -362 -79 -4 -6 4 -7 22 -3 34 9 215
25 270 25 35 0 30 -3 -44 -25 -127 -37 -130 -40 -106 -95 5 -13 -4 -20 -42
-32 -26 -9 -63 -19 -80 -22 -60 -12 -49 -27 13 -20 81 9 121 23 138 47 9 12
36 26 68 33 31 8 43 14 28 14 -14 1 -32 6 -40 11 -13 9 -12 11 5 16 11 3 54
18 95 33 58 20 74 30 72 44 -5 31 43 39 217 35 120 -2 165 0 168 9 13 38 -212
43 -422 9z"/>
<path d="M7790 7769 c0 -19 -19 -29 -58 -30 -20 -1 -13 -5 23 -15 28 -8 60
-13 73 -12 23 3 23 3 -7 38 -21 24 -30 30 -31 19z"/>
<path d="M1880 7729 c0 -25 18 -45 30 -33 7 7 5 16 -10 29 -15 14 -20 15 -20
4z"/>
<path d="M6839 7720 c-19 -15 -20 -19 -8 -20 9 0 27 9 40 20 19 15 20 19 8 20
-9 0 -27 -9 -40 -20z"/>
<path d="M8067 7709 c16 -16 196 -19 203 -4 3 6 -36 11 -105 13 -86 2 -107 0
-98 -9z"/>
<path d="M8770 7700 c74 -10 158 -21 185 -24 l50 -6 -32 15 c-32 15 -212 36
-293 34 -26 -1 13 -9 90 -19z"/>
<path d="M6648 7690 c-97 -17 -308 -99 -308 -121 0 -6 6 -6 18 0 9 5 85 28
168 50 164 44 218 64 207 74 -7 8 -21 8 -85 -3z"/>
<path d="M6885 7669 c-79 -33 -119 -61 -114 -77 4 -12 83 20 148 61 20 12 44
21 55 22 10 0 21 6 23 13 8 21 -37 13 -112 -19z"/>
<path d="M3271 7635 c1 -43 2 -46 9 -22 5 16 5 38 0 50 -7 17 -9 10 -9 -28z"/>
<path d="M7970 7676 c0 -9 30 -14 35 -6 4 6 -3 10 -14 10 -12 0 -21 -2 -21 -4z"/>
<path d="M9040 7651 c0 -26 14 -41 39 -41 15 0 59 -16 99 -35 74 -35 95 -33
43 5 -57 40 -181 89 -181 71z"/>
<path d="M6265 7621 c-103 -37 -195 -97 -195 -127 0 -19 24 -18 41 2 15 19 69
47 142 74 60 23 116 70 81 70 -10 -1 -41 -9 -69 -19z"/>
<path d="M8400 7629 c14 -6 59 -13 100 -15 58 -3 70 -2 51 6 -13 6 -58 13
-100 16 -61 4 -71 2 -51 -7z"/>
<path d="M5610 7609 c-14 -6 -103 -31 -198 -55 -181 -46 -282 -57 -282 -29 0
30 -33 34 -147 15 -129 -21 -137 -24 -123 -50 14 -27 13 -30 -12 -30 -13 0
-30 -5 -38 -11 -24 -17 268 -2 400 21 181 31 401 100 430 135 14 17 6 18 -30
4z m-530 -119 c0 -5 -16 -10 -35 -10 -19 0 -35 5 -35 10 0 6 16 10 35 10 19 0
35 -4 35 -10z"/>
<path d="M7623 7613 c9 -2 23 -2 30 0 6 3 -1 5 -18 5 -16 0 -22 -2 -12 -5z"/>
<path d="M6025 7584 c-27 -7 -69 -14 -92 -14 -31 0 -43 -4 -43 -15 0 -8 -26
-31 -57 -51 -32 -21 -53 -39 -46 -41 19 -7 323 118 323 132 0 8 -32 4 -85 -11z"/>
<path d="M8130 7595 c0 -8 111 -37 117 -31 9 8 -62 36 -92 36 -14 0 -25 -2
-25 -5z"/>
<path d="M6585 7550 c-27 -11 -113 -37 -190 -60 -133 -39 -199 -70 -149 -70
12 0 57 11 100 25 92 29 211 55 251 55 24 -1 25 -2 11 -11 -10 -5 -18 -19 -18
-30 0 -16 -5 -18 -24 -13 -18 4 -27 1 -35 -13 -5 -11 -28 -28 -50 -38 -23 -10
-41 -22 -41 -27 0 -12 4 -11 70 16 32 13 90 31 129 40 86 20 251 37 264 29 6
-4 -48 -19 -119 -35 -71 -15 -142 -33 -159 -40 -38 -15 -88 -49 -81 -55 2 -3
39 3 80 13 60 14 81 15 101 6 14 -6 25 -16 25 -21 0 -11 -73 -41 -100 -41 -52
0 1 -38 76 -55 l29 -7 -30 26 -30 25 29 1 c36 0 89 -32 117 -72 l22 -30 -22
11 c-12 7 -57 18 -100 26 -43 7 -106 25 -141 39 -35 14 -67 26 -72 26 -18 0 4
-21 41 -39 77 -40 395 -140 407 -128 2 1 -35 43 -81 93 -47 49 -81 90 -77 92
5 1 25 -13 45 -31 43 -41 129 -91 180 -105 36 -10 170 -93 183 -113 14 -24 -8
-15 -91 36 -95 58 -126 64 -60 12 120 -96 215 -179 215 -188 0 -10 -47 20
-154 98 -32 24 -84 50 -115 59 -31 9 -143 43 -249 75 -106 32 -197 59 -203 59
-5 0 -9 -6 -9 -14 0 -8 19 -21 43 -31 23 -9 51 -25 62 -35 11 -10 101 -53 200
-96 174 -74 250 -114 228 -121 -10 -4 -66 17 -272 101 -63 26 -122 45 -130 43
-10 -2 2 -12 29 -24 98 -44 306 -131 330 -138 75 -22 230 -128 230 -158 0 -6
-10 -1 -22 11 -28 25 -134 82 -155 82 -19 0 -213 80 -300 123 -37 19 -79 37
-93 41 -24 7 -25 7 -5 -9 27 -23 187 -102 319 -160 129 -56 175 -83 238 -141
26 -24 50 -44 54 -44 3 0 4 14 0 31 -5 27 -4 30 14 24 38 -12 20 18 -64 105
-90 93 -116 130 -94 130 15 0 44 -20 134 -91 78 -61 104 -75 104 -55 0 8 -4
18 -10 21 -5 3 -10 11 -10 16 0 6 12 1 28 -11 l27 -22 3 22 c3 16 -10 37 -40
69 -85 90 -89 97 -34 62 64 -40 76 -40 76 3 0 51 19 62 91 48 86 -16 166 -56
218 -109 52 -52 181 -146 190 -137 10 10 -188 166 -329 260 -100 67 -109 72
-81 41 14 -15 22 -29 19 -32 -13 -13 -81 28 -100 60 -15 27 -26 35 -49 35 -16
0 -29 2 -29 5 0 3 16 22 36 41 38 39 35 56 -12 68 -30 8 -22 26 12 26 13 0 24
5 24 10 0 6 -4 10 -10 10 -21 0 -377 41 -410 47 l-35 6 30 7 c17 4 116 8 221
9 203 1 219 5 208 48 -6 23 -39 33 -114 33 -62 0 -110 10 -110 23 0 6 33 8 93
5 l92 -6 -70 19 c-126 34 -155 38 -155 21 0 -12 -12 -14 -70 -9 -38 3 -78 10
-87 16 -16 9 -15 11 12 21 17 6 53 22 80 35 l50 25 -85 -8 c-139 -12 -329 -2
-425 21 -11 3 -42 -3 -70 -13z m446 -154 c19 -7 93 -16 166 -20 77 -4 148 -13
170 -21 36 -14 31 -15 -82 -10 -114 6 -306 27 -359 41 -15 3 -34 -1 -49 -11
-18 -11 -43 -15 -89 -13 -57 3 -61 4 -40 16 50 29 229 40 283 18z m-64 -108
l38 -23 -48 -3 c-32 -2 -57 2 -73 13 -57 37 21 49 83 13z m106 -45 c-7 -2 -21
-2 -30 0 -10 3 -4 5 12 5 17 0 24 -2 18 -5z m192 -26 l40 -12 -37 -3 c-44 -4
-118 15 -118 29 0 12 45 6 115 -14z m-143 -26 c58 -20 98 -41 98 -53 0 -10
-68 11 -135 42 -70 33 -47 40 37 11z m-137 -157 c123 -40 145 -50 145 -65 0
-16 -64 -1 -200 48 -119 43 -200 78 -200 88 0 6 127 -30 255 -71z m306 26 c28
-16 23 -32 -6 -18 -14 6 -25 15 -25 20 0 11 7 10 31 -2z m19 -101 c0 -14 -5
-11 -31 17 l-24 27 28 -18 c15 -9 27 -21 27 -26z"/>
<path d="M8460 7551 c57 -30 271 -113 277 -108 7 8 -22 22 -163 77 -130 51
-177 64 -114 31z"/>
<path d="M5672 7541 c-35 -10 -73 -28 -85 -39 -12 -12 -65 -40 -117 -63 -101
-44 -120 -56 -120 -71 0 -17 63 0 178 46 98 40 245 110 282 135 25 18 -67 12
-138 -8z"/>
<path d="M8990 7541 c14 -11 54 -31 90 -44 88 -33 100 -37 100 -31 0 7 -158
81 -190 89 l-25 6 25 -20z"/>
<path d="M8310 7547 c0 -8 132 -48 138 -42 3 2 -10 11 -29 19 -40 16 -109 31
-109 23z"/>
<path d="M2380 7513 c0 -5 14 -28 31 -49 53 -66 72 -114 77 -191 6 -92 22 -95
22 -5 0 56 -5 80 -30 128 -27 56 -100 141 -100 117z"/>
<path d="M5873 7433 c-47 -5 -73 -27 -55 -45 9 -9 35 -7 104 10 124 30 141 42
58 40 -36 -1 -84 -3 -107 -5z"/>
<path d="M2530 7395 c0 -3 8 -22 19 -43 24 -47 39 -123 47 -237 5 -75 8 -87
19 -72 12 16 13 16 19 -5 3 -13 6 -63 7 -113 1 -85 1 -88 14 -60 19 40 18 129
-1 190 -8 28 -24 92 -34 144 -19 93 -62 201 -81 201 -5 0 -9 -2 -9 -5z"/>
<path d="M9280 7392 c0 -15 68 -74 80 -70 7 2 -4 19 -26 41 -38 36 -54 45 -54
29z"/>
<path d="M2340 7375 c0 -12 35 -75 42 -75 13 0 10 12 -12 48 -18 29 -30 40
-30 27z"/>
<path d="M5073 7363 c15 -2 39 -2 55 0 15 2 2 4 -28 4 -30 0 -43 -2 -27 -4z"/>
<path d="M9090 7345 c7 -8 20 -15 30 -15 10 0 20 -9 23 -19 2 -11 20 -27 38
-37 19 -9 47 -28 63 -41 41 -34 45 -20 7 28 -18 22 -31 43 -28 46 3 3 42 -7
86 -22 45 -15 87 -25 93 -23 26 9 -250 98 -302 98 -19 0 -20 -2 -10 -15z"/>
<path d="M4987 7310 c-4 -14 -14 -20 -34 -21 -26 0 -27 -1 -6 -9 59 -24 173
-24 173 -1 0 9 -100 51 -119 51 -5 0 -11 -9 -14 -20z"/>
<path d="M5333 7323 c15 -2 37 -2 50 0 12 2 0 4 -28 4 -27 0 -38 -2 -22 -4z"/>
<path d="M2845 7262 c4 -18 10 -72 15 -120 l8 -87 -2 100 c-1 59 -7 108 -14
120 -11 18 -12 16 -7 -13z"/>
<path d="M5590 7279 c-109 -20 -230 -51 -230 -58 0 -18 282 37 304 59 12 12
-9 12 -74 -1z"/>
<path d="M9030 7265 c0 -6 43 -55 95 -110 51 -55 94 -95 95 -90 0 6 -43 55
-95 110 -51 55 -94 95 -95 90z"/>
<path d="M4935 7205 c33 -16 125 -20 125 -6 0 10 -61 21 -115 20 l-40 -1 30
-13z"/>
<path d="M5641 7187 c-27 -12 -78 -21 -128 -25 -46 -2 -83 -9 -83 -13 0 -34
191 -15 244 24 34 25 12 34 -33 14z"/>
<path d="M2915 6981 c0 -218 5 -237 24 -85 19 156 11 294 -16 294 -5 0 -8 -94
-8 -209z"/>
<path d="M9274 7155 c46 -41 156 -108 156 -95 0 10 -14 20 -113 86 -80 52 -97
56 -43 9z"/>
<path d="M3258 7141 c-5 -18 -8 -93 -8 -165 0 -100 4 -138 16 -161 9 -16 18
-57 21 -90 6 -71 36 -171 62 -202 10 -12 34 -28 54 -36 19 -9 75 -52 124 -98
48 -45 101 -91 117 -103 15 -12 41 -43 56 -69 21 -37 29 -44 34 -31 10 27 -25
71 -167 212 l-134 133 -7 97 c-4 53 -10 108 -13 122 -13 52 -21 -14 -16 -125
l5 -110 -35 40 c-42 48 -46 71 -48 235 0 69 -4 136 -8 150 -6 22 -9 20 -22
-25 -14 -50 -14 -50 -19 105 -3 103 -8 144 -12 121z"/>
<path d="M4804 7161 c5 -7 64 -27 139 -48 28 -7 20 14 -10 26 -26 10 -108 30
-126 31 -5 0 -6 -4 -3 -9z"/>
<path d="M8695 7144 c51 -33 179 -94 184 -88 7 6 -26 29 -110 73 -86 46 -140
57 -74 15z"/>
<path d="M10234 7151 c30 -33 12 -36 -69 -11 -77 24 -115 21 -54 -4 105 -43
139 -51 149 -36 9 15 26 6 132 -73 15 -11 31 -18 35 -14 3 4 4 8 2 10 -50 40
-170 127 -189 137 l-25 13 19 -22z"/>
<path d="M6365 7151 c3 -5 40 -23 83 -39 104 -40 122 -45 122 -34 0 11 -79 47
-149 68 -54 16 -64 17 -56 5z"/>
<path d="M6221 7118 c19 -37 51 -79 56 -75 6 6 -50 97 -60 97 -4 0 -2 -10 4
-22z"/>
<path d="M4730 7095 c0 -12 86 -45 120 -45 45 0 28 14 -35 29 -27 7 -58 14
-67 17 -10 3 -18 3 -18 -1z"/>
<path d="M8060 7091 c0 -7 13 -14 28 -17 15 -3 32 -15 37 -27 10 -21 32 -32
168 -81 26 -10 47 -21 47 -25 0 -11 -95 5 -235 39 -66 16 -132 31 -146 34 -18
4 -26 12 -25 23 1 13 -7 19 -26 21 -20 2 -28 -1 -28 -12 0 -18 31 -40 128 -92
40 -21 69 -40 63 -42 -5 -2 -47 4 -93 12 -69 12 -103 25 -193 75 -94 52 -145
72 -145 57 0 -2 53 -39 118 -82 125 -83 128 -84 275 -88 50 -1 62 2 77 22 l19
23 106 -71 c114 -76 135 -88 135 -72 0 5 -37 37 -82 71 -68 51 -77 61 -56 61
57 0 137 -22 201 -55 37 -19 71 -35 75 -35 4 1 -22 28 -58 60 l-65 59 55 -14
c30 -8 85 -30 123 -49 76 -39 87 -34 25 11 -69 49 -109 66 -171 74 -40 5 -76
18 -115 42 -83 50 -242 101 -242 78z m173 -60 c19 -19 -2 -25 -43 -12 -57 17
-64 36 -10 28 23 -3 47 -10 53 -16z"/>
<path d="M8440 7094 c0 -5 165 -84 176 -84 19 0 -19 27 -79 56 -68 32 -97 41
-97 28z"/>
<path d="M5675 7070 c-26 -28 -118 -54 -167 -46 -22 4 -53 16 -69 28 -45 34
-49 10 -4 -28 l40 -34 -72 6 c-44 4 -73 3 -73 -3 0 -26 107 -106 189 -140 l56
-24 -75 3 c-59 3 -87 9 -135 33 -80 40 -82 41 -66 21 35 -42 187 -95 271 -96
22 0 42 7 51 18 8 9 26 24 39 33 25 16 24 17 -40 23 -36 4 -81 12 -100 18 -43
13 -120 60 -120 73 0 6 33 10 78 11 53 1 94 8 132 22 81 32 133 86 94 99 -6 2
-19 -6 -29 -17z"/>
<path d="M4644 7032 c8 -13 105 -46 113 -39 2 3 -6 13 -20 22 -30 20 -103 33
-93 17z"/>
<path d="M10240 7033 c0 -7 15 -33 34 -57 18 -24 37 -57 40 -72 17 -65 159
-217 247 -262 l44 -24 -26 24 c-14 13 -58 49 -98 80 -82 67 -142 141 -117 146
14 3 14 7 1 30 -19 37 -124 150 -125 135z"/>
<path d="M6092 7003 c2 -10 11 -19 21 -21 16 -3 17 -1 7 17 -13 25 -33 28 -28
4z"/>
<path d="M8728 6993 c30 -43 28 -56 -8 -51 -43 6 -37 -9 8 -22 46 -12 140 -30
157 -30 23 0 4 41 -24 52 -56 22 -68 28 -110 54 l-45 27 22 -30z"/>
<path d="M2842 6980 c0 -14 2 -19 5 -12 2 6 2 18 0 25 -3 6 -5 1 -5 -13z"/>
<path d="M9185 6945 l6 -60 -35 40 c-61 69 -42 14 27 -76 34 -45 98 -130 142
-188 78 -103 103 -125 155 -135 14 -3 56 -32 93 -66 37 -33 73 -60 79 -60 12
0 -1 16 -123 145 -82 88 -101 117 -105 161 -1 22 -15 50 -37 77 -19 23 -51 68
-71 100 -20 31 -39 57 -41 57 -8 0 8 -34 52 -108 24 -40 43 -77 43 -83 0 -13
47 -104 78 -151 14 -21 22 -41 19 -44 -8 -8 -83 62 -123 117 -31 42 -35 55
-30 84 5 26 3 35 -7 35 -25 0 -59 48 -93 132 l-35 83 6 -60z"/>
<path d="M4620 6961 c0 -9 61 -51 74 -51 15 0 3 17 -27 38 -36 24 -47 27 -47
13z"/>
<path d="M2980 6883 c-1 -43 -5 -125 -10 -182 -5 -58 -7 -107 -5 -109 18 -18
49 248 38 326 -9 68 -23 48 -23 -35z"/>
<path d="M10400 6955 c0 -24 114 -134 126 -122 3 3 -11 24 -32 47 -38 41 -94
87 -94 75z"/>
<path d="M9350 6936 c0 -21 77 -86 101 -86 18 0 13 7 -25 35 -25 20 -46 40
-46 44 0 5 -7 11 -15 15 -9 3 -15 0 -15 -8z"/>
<path d="M5890 6936 c0 -16 105 -86 128 -86 l27 0 -30 18 c-84 50 -125 72
-125 68z"/>
<path d="M6565 6925 c10 -9 51 -25 90 -36 181 -55 323 -134 372 -210 17 -27
28 -49 25 -49 -13 0 -122 70 -189 120 -78 59 -107 66 -43 10 91 -80 341 -232
357 -217 2 3 -28 40 -66 83 -39 44 -67 80 -62 82 15 5 80 -31 156 -87 84 -61
103 -65 50 -10 -66 67 -136 114 -205 138 -36 13 -117 50 -180 83 -71 37 -130
62 -156 64 -23 2 -67 13 -99 24 -69 24 -77 24 -50 5z"/>
<path d="M2517 6914 c-18 -18 -2 -88 19 -84 18 2 15 -31 -5 -56 -36 -46 -25
-84 15 -57 30 20 43 67 32 118 -9 41 -48 91 -61 79z"/>
<path d="M5800 6914 c0 -14 63 -124 71 -124 14 0 11 12 -21 67 -27 47 -50 74
-50 57z"/>
<path d="M2457 6896 c-14 -37 3 -126 24 -126 14 0 11 104 -4 124 -13 18 -14
18 -20 2z"/>
<path d="M2695 6843 c-3 -32 -8 -68 -11 -80 -2 -13 0 -23 5 -23 10 0 17 31 24
113 6 68 -10 58 -18 -10z"/>
<path d="M7930 6859 c38 -32 110 -72 117 -65 10 10 -27 44 -71 66 -55 26 -79
26 -46 -1z"/>
<path d="M8725 6860 c11 -19 106 -90 118 -90 17 1 -94 100 -110 100 -8 0 -11
-5 -8 -10z"/>
<path d="M8079 6841 c47 -36 191 -121 191 -112 0 13 -58 55 -132 95 -70 39
-97 47 -59 17z"/>
<path d="M4522 6831 c15 -24 43 -39 86 -45 48 -6 39 9 -22 38 -67 32 -81 33
-64 7z"/>
<path d="M7625 6810 c7 -11 67 -44 110 -60 30 -11 33 0 5 18 -34 21 -122 53
-115 42z"/>
<path d="M6552 6790 c33 -18 137 -50 161 -50 4 0 5 4 2 10 -6 10 -162 60 -186
60 -7 -1 3 -10 23 -20z"/>
<path d="M5347 6788 c6 -7 31 -39 56 -71 63 -78 62 -95 -4 -61 -28 14 -54 23
-57 20 -3 -3 -3 -8 -1 -9 2 -2 30 -23 62 -46 35 -26 63 -55 69 -72 5 -16 17
-29 25 -29 41 0 -27 179 -93 243 -36 35 -79 54 -57 25z"/>
<path d="M9629 6785 c12 -27 210 -233 210 -220 1 6 -49 62 -109 125 -61 63
-107 106 -101 95z"/>
<path d="M10272 6768 c43 -40 146 -103 154 -95 8 7 -78 69 -141 102 l-50 26
37 -33z"/>
<path d="M4420 6770 c13 -24 107 -100 123 -100 14 1 -109 120 -124 120 -6 0
-6 -7 1 -20z"/>
<path d="M5740 6774 c0 -18 53 -85 114 -144 74 -72 71 -52 -5 35 -85 98 -109
121 -109 109z"/>
<path d="M5707 6733 c3 -21 10 -56 16 -78 16 -61 22 -14 7 57 -14 64 -32 80
-23 21z"/>
<path d="M7610 6750 c14 -10 72 -47 130 -81 134 -80 156 -101 243 -231 78
-118 107 -143 55 -48 -51 93 -159 233 -193 249 -56 26 -90 44 -165 87 -78 46
-113 58 -70 24z"/>
<path d="M5180 6752 c0 -8 69 -76 103 -101 36 -28 15 8 -35 57 -50 50 -68 61
-68 44z"/>
<path d="M6010 6750 c0 -10 41 -30 61 -30 18 0 8 17 -16 28 -32 15 -45 15 -45
2z"/>
<path d="M9060 6747 c0 -21 69 -161 76 -154 7 7 -33 107 -56 142 -14 22 -20
25 -20 12z"/>
<path d="M10523 6739 c37 -21 87 -39 87 -30 0 5 -18 16 -40 25 -45 18 -75 21
-47 5z"/>
<path d="M4340 6727 c-1 -20 43 -87 75 -116 72 -63 50 -15 -39 84 -19 22 -35
36 -36 32z"/>
<path d="M3035 6628 c-60 -264 -61 -407 -2 -457 21 -17 21 -13 2 32 -20 49
-19 151 5 337 10 85 18 156 16 158 -2 2 -12 -30 -21 -70z"/>
<path d="M2594 6648 c-4 -6 0 -16 9 -23 14 -10 17 -30 17 -109 0 -94 11 -126
24 -65 8 40 8 172 0 193 -7 19 -40 21 -50 4z"/>
<path d="M7975 6635 c63 -104 165 -220 260 -294 98 -78 95 -70 -15 45 -58 60
-141 147 -184 194 -43 47 -71 72 -61 55z"/>
<path d="M10200 6640 c20 -38 98 -138 112 -143 7 -2 21 1 30 7 13 8 30 4 74
-17 31 -15 59 -26 61 -23 6 6 -89 68 -166 108 -31 16 -71 44 -90 61 -30 29
-32 30 -21 7z m115 -90 c27 -30 12 -34 -15 -5 -13 14 -19 25 -13 25 5 0 18 -9
28 -20z"/>
<path d="M8205 6615 c34 -31 122 -85 140 -85 21 0 -7 24 -77 65 -107 62 -111
63 -63 20z"/>
<path d="M9260 6643 c0 -5 10 -33 23 -63 20 -50 22 -71 22 -230 -1 -96 -7
-206 -13 -244 -7 -37 -11 -71 -8 -73 11 -12 36 109 47 225 13 150 2 258 -36
339 -22 48 -35 65 -35 46z"/>
<path d="M5161 6610 c-1 -8 29 -64 64 -125 36 -60 65 -115 65 -121 0 -7 5 -16
10 -19 26 -16 5 58 -36 132 -51 90 -103 157 -103 133z"/>
<path d="M9206 6585 c9 -52 11 -55 40 -55 32 0 30 9 -11 56 l-35 39 6 -40z"/>
<path d="M9710 6602 c6 -12 38 -51 71 -85 33 -34 56 -53 50 -42 -15 29 -134
154 -121 127z"/>
<path d="M3510 6601 c0 -5 9 -38 20 -75 14 -44 31 -74 52 -93 110 -99 154
-168 188 -295 l20 -73 -3 70 c-3 99 -38 165 -147 280 -73 77 -89 99 -100 143
-8 29 -17 52 -22 52 -4 0 -8 -4 -8 -9z"/>
<path d="M4298 6594 c16 -30 109 -130 115 -124 7 6 -98 133 -114 139 -8 2 -8
-2 -1 -15z"/>
<path d="M6840 6595 c14 -16 40 -20 40 -6 0 9 -24 21 -42 21 -6 0 -6 -6 2 -15z"/>
<path d="M5240 6590 c0 -5 16 -25 35 -45 32 -31 55 -44 55 -30 0 3 -16 23 -36
45 -36 39 -54 50 -54 30z"/>
<path d="M8120 6591 c0 -23 203 -182 216 -169 5 5 -199 178 -210 178 -3 0 -6
-4 -6 -9z"/>
<path d="M9580 6573 c0 -12 100 -108 128 -123 42 -21 33 -4 -20 41 -29 24 -65
55 -80 67 -16 13 -28 20 -28 15z"/>
<path d="M5076 6548 c4 -7 24 -38 44 -68 51 -76 85 -146 101 -208 16 -67 32
-53 19 17 -12 64 -57 151 -113 219 -38 46 -69 70 -51 40z"/>
<path d="M4230 6544 c0 -16 100 -167 107 -161 3 3 -7 28 -22 56 -31 56 -84
122 -85 105z"/>
<path d="M5610 6537 c0 -10 129 -205 140 -212 27 -17 2 30 -68 125 -61 84 -72
97 -72 87z"/>
<path d="M2723 6523 c-43 -8 -36 -54 21 -137 18 -27 26 -52 26 -82 0 -45 14
-59 25 -25 8 26 -10 99 -29 120 -21 23 -20 44 4 91 l20 40 -22 -1 c-13 -1 -33
-4 -45 -6z"/>
<path d="M7669 6473 c15 -27 52 -86 81 -133 67 -107 90 -156 90 -198 0 -45
-12 -35 -60 53 -23 41 -43 75 -46 75 -7 0 34 -96 81 -190 25 -50 50 -88 55
-85 13 8 13 65 -1 162 -12 87 -31 140 -57 159 -9 7 -48 55 -87 108 -75 102
-102 126 -56 49z"/>
<path d="M7760 6512 c0 -16 157 -178 164 -171 4 4 -10 26 -31 50 -53 61 -133
134 -133 121z"/>
<path d="M10500 6516 c0 -12 121 -76 163 -87 70 -17 67 -5 -5 21 -35 12 -83
33 -107 46 -45 25 -51 27 -51 20z"/>
<path d="M10000 6484 c0 -5 32 -41 70 -79 39 -38 70 -65 70 -59 0 5 -31 41
-70 79 -38 38 -70 65 -70 59z"/>
<path d="M10220 6447 c24 -26 51 -47 58 -47 21 0 3 19 -55 60 l-48 33 45 -46z"/>
<path d="M3089 6433 c-21 -63 -16 -254 10 -352 16 -62 19 -87 11 -95 -8 -8
-18 -3 -36 19 -27 33 -28 30 -13 -34 10 -46 72 -141 91 -141 15 0 3 127 -17
200 -32 112 -44 303 -26 398 10 52 -3 55 -20 5z"/>
<path d="M3720 6465 c0 -3 16 -37 36 -75 19 -39 43 -106 52 -150 9 -44 20 -80
24 -80 11 0 10 18 -7 105 -17 92 -55 179 -84 194 -12 7 -21 9 -21 6z"/>
<path d="M4150 6465 c0 -3 11 -28 25 -55 13 -27 28 -74 31 -105 8 -65 24 -84
24 -27 0 60 -50 192 -72 192 -5 0 -8 -2 -8 -5z"/>
<path d="M9091 6370 c-1 -99 -20 -200 -47 -251 -17 -35 -12 -48 11 -29 37 31
68 250 47 335 -9 35 -10 29 -11 -55z"/>
<path d="M5564 6355 c0 -55 1 -76 3 -47 2 29 2 74 0 100 -2 26 -3 2 -3 -53z"/>
<path d="M7170 6415 c0 -22 4 -34 10 -30 6 3 10 17 10 30 0 13 -4 27 -10 30
-6 4 -10 -8 -10 -30z"/>
<path d="M3267 6424 c-15 -15 -6 -87 19 -157 24 -67 26 -83 25 -229 -2 -181 3
-201 73 -303 44 -63 48 -73 43 -115 -2 -25 -8 -53 -12 -64 -8 -17 -7 -17 25
-1 18 9 35 25 37 36 7 26 19 16 42 -36 11 -25 27 -45 35 -45 12 0 10 11 -10
59 -19 47 -54 211 -54 254 0 4 -4 7 -10 7 -6 0 -10 -28 -10 -65 0 -63 -11 -83
-25 -47 -4 9 -9 71 -11 137 -3 66 -8 131 -10 145 -5 23 -6 24 -16 6 -6 -11
-11 -68 -10 -129 1 -92 -1 -107 -13 -97 -33 27 -50 102 -50 216 0 96 3 115 19
133 24 27 56 27 90 0 32 -25 33 -16 4 31 -11 19 -32 55 -45 80 l-24 45 6 -59
6 -60 -22 20 c-40 36 -79 116 -80 164 0 50 -11 85 -22 74z"/>
<path d="M7930 6427 c0 -18 134 -247 145 -247 9 0 -25 73 -65 140 -41 70 -79
121 -80 107z"/>
<path d="M9256 6389 c-18 -119 -47 -298 -52 -319 l-5 -25 15 26 c22 38 36 107
47 233 9 104 6 156 -5 85z"/>
<path d="M10159 6391 c21 -29 101 -92 131 -104 8 -3 32 -12 53 -21 60 -26 42
-4 -26 31 -34 18 -85 53 -114 78 -59 52 -73 57 -44 16z"/>
<path d="M6993 6375 c0 -22 2 -30 4 -17 2 12 2 30 0 40 -3 9 -5 -1 -4 -23z"/>
<path d="M7417 6385 c34 -48 192 -211 193 -199 0 14 -159 193 -190 213 l-25
16 22 -30z"/>
<path d="M9384 6390 c3 -14 8 -92 12 -175 l8 -150 14 70 c12 58 12 83 2 145
-7 41 -18 89 -26 105 -12 27 -14 27 -10 5z"/>
<path d="M2888 6392 c-14 -3 -18 -14 -18 -50 0 -33 -3 -43 -10 -32 -17 27 -23
0 -11 -56 6 -32 17 -65 25 -73 8 -9 19 -28 25 -44 12 -31 31 -35 54 -9 20 22
33 72 18 72 -6 0 -11 -4 -11 -10 0 -5 -4 -10 -10 -10 -5 0 -10 15 -10 34 0 18
-7 39 -15 46 -9 7 -15 35 -17 74 -3 52 -6 61 -20 58z"/>
<path d="M11407 6288 c61 -62 118 -128 127 -145 20 -39 26 -41 26 -10 0 29
-76 118 -174 205 -112 98 -101 73 21 -50z"/>
<path d="M5095 6378 c44 -137 66 -221 71 -278 4 -38 11 -70 16 -70 23 0 -20
248 -54 317 -20 39 -43 61 -33 31z"/>
<path d="M9168 6270 c-9 -63 -20 -124 -24 -134 -5 -12 -4 -17 3 -13 22 14 44
114 41 188 l-3 74 -17 -115z"/>
<path d="M7580 6365 c0 -3 13 -32 30 -65 16 -32 41 -90 55 -127 14 -37 41 -99
60 -138 25 -51 39 -98 50 -174 9 -58 18 -107 20 -110 17 -17 -13 245 -34 302
-6 15 -16 26 -23 25 -7 -2 -18 17 -26 42 -8 25 -21 63 -28 85 -24 71 -104 194
-104 160z"/>
<path d="M8942 6315 c-6 -33 -36 -110 -66 -171 -68 -141 -99 -235 -100 -304
-1 -84 18 -77 26 10 8 91 45 204 92 279 44 73 68 147 64 202 l-3 44 -13 -60z"/>
<path d="M4136 6310 c4 -19 10 -51 15 -70 7 -30 8 -26 5 23 -1 32 -8 63 -15
70 -9 9 -10 3 -5 -23z"/>
<path d="M2931 6316 c-8 -10 -9 -16 -1 -21 13 -8 30 3 30 21 0 18 -14 18 -29
0z"/>
<path d="M5485 6258 c8 -47 43 -132 44 -107 1 21 -38 149 -45 149 -3 0 -3 -19
1 -42z"/>
<path d="M3970 6281 c0 -6 14 -40 31 -74 25 -48 33 -78 35 -132 4 -65 3 -68
-10 -41 -19 42 -26 22 -38 -120 -11 -140 -3 -338 14 -328 7 5 9 67 6 183 -5
202 1 253 16 133 14 -104 32 -109 28 -8 -3 48 1 80 9 94 27 43 -28 252 -76
292 -11 9 -15 9 -15 1z"/>
<path d="M5320 6260 c0 -5 9 -52 21 -103 15 -66 20 -125 20 -209 0 -82 3 -118
11 -118 17 0 4 311 -17 377 -14 48 -35 79 -35 53z"/>
<path d="M8833 6220 c-27 -72 -38 -124 -25 -116 15 9 54 132 50 153 -3 11 -12
-3 -25 -37z"/>
<path d="M11248 6232 c48 -42 54 -62 17 -62 -14 0 -25 -5 -25 -11 0 -22 114
-118 126 -107 2 3 -12 25 -32 49 -36 44 -36 44 -13 49 41 10 29 41 -30 82 -71
50 -100 50 -43 0z"/>
<path d="M3151 6212 c-1 -30 8 -97 18 -150 11 -54 29 -153 41 -222 11 -69 26
-143 32 -165 10 -35 12 -37 16 -15 2 13 2 55 0 92 -2 38 0 68 4 68 4 0 8 -7 8
-15 0 -8 5 -15 11 -15 15 0 1 59 -21 87 -23 30 -56 134 -84 273 -22 105 -24
110 -25 62z"/>
<path d="M5055 6248 c22 -66 64 -224 70 -265 4 -29 11 -53 16 -53 11 0 3 76
-17 168 -16 71 -52 162 -65 162 -5 0 -6 -6 -4 -12z"/>
<path d="M8115 6213 c35 -65 64 -102 65 -83 0 20 -69 130 -81 130 -6 0 1 -21
16 -47z"/>
<path d="M3263 6199 c-7 -7 -13 -29 -13 -48 l1 -36 15 28 c19 34 16 75 -3 56z"/>
<path d="M4950 6194 c0 -6 7 -31 16 -55 36 -99 65 -209 79 -293 17 -107 35
-135 35 -55 0 65 -20 153 -61 274 -28 82 -68 157 -69 129z"/>
<path d="M9850 6163 c0 -13 104 -163 113 -163 10 0 -6 31 -54 102 -38 55 -59
77 -59 61z"/>
<path d="M5276 6118 c13 -139 24 -305 24 -346 -1 -70 -15 -36 -45 104 -16 78
-23 100 -20 64 11 -126 17 -459 10 -505 l-7 -50 -24 95 c-29 117 -28 110 -3
110 15 0 19 5 15 18 -2 9 -17 73 -31 142 -15 69 -31 132 -36 140 -4 8 -6 -33
-3 -95 5 -115 -1 -119 -29 -20 l-15 50 -1 -38 c-1 -21 14 -93 33 -160 42 -148
50 -187 39 -187 -4 0 -25 54 -46 120 -21 66 -42 120 -48 120 -6 0 -8 -8 -5
-17 59 -201 71 -295 82 -626 5 -150 9 -191 22 -203 14 -14 13 -34 -3 -203 -19
-203 -13 -312 23 -409 16 -42 22 -48 62 -60 76 -23 77 -24 43 -35 -41 -12 -41
-18 -2 -36 17 -7 35 -24 41 -37 20 -43 10 -43 -119 4 -7 2 -13 0 -13 -6 0 -10
156 -94 200 -107 14 -4 37 -22 52 -39 l26 -31 11 28 c10 26 12 27 27 12 22
-22 29 -12 43 68 23 131 56 161 45 41 -7 -73 -6 -76 12 -66 38 20 52 46 52 94
-1 31 8 64 26 102 25 52 46 72 46 45 0 -8 4 -8 14 0 18 15 53 132 60 201 l6
55 -21 -40 c-44 -85 -131 -222 -162 -256 -49 -56 -202 -179 -222 -179 -12 0
-15 5 -11 16 4 10 -1 22 -11 29 -17 13 -17 15 5 45 l24 32 -24 25 c-12 14 -42
36 -66 50 -23 14 -46 33 -51 42 -10 18 24 209 40 225 5 6 9 -28 9 -91 0 -104
15 -147 24 -71 3 24 10 120 16 213 6 94 13 181 16 195 5 24 5 24 -10 6 -8 -10
-25 -61 -37 -112 -12 -52 -22 -94 -23 -94 0 0 -1 73 -1 162 0 115 -5 189 -18
252 -18 94 -33 276 -41 511 -5 147 2 131 23 -50 16 -132 60 -401 71 -428 8
-21 9 -21 9 -2 1 11 -10 94 -23 185 -26 173 -52 428 -44 435 6 6 78 -129 78
-146 0 -8 -11 -2 -26 15 -31 35 -41 28 -20 -13 28 -54 46 -143 61 -306 25
-258 40 -323 99 -430 14 -25 15 -48 10 -141 -4 -72 -3 -118 4 -130 10 -18 11
-18 18 -1 13 34 -2 249 -21 297 -69 179 -68 173 -77 395 -4 116 -14 287 -21
380 l-13 170 -9 -73 -10 -73 -34 61 -33 62 -2 201 c-3 187 -19 337 -37 337 -3
0 -5 -19 -3 -42z m-78 -1040 l-1 -213 -10 129 c-8 113 -3 296 9 296 2 0 3 -96
2 -212z m92 -193 c0 -8 -4 -17 -10 -20 -6 -4 -10 5 -10 20 0 15 4 24 10 20 6
-3 10 -12 10 -20z m26 -194 c-10 -134 -47 -424 -56 -441 -17 -30 -22 81 -11
270 6 106 13 195 16 198 3 3 5 -7 5 -22 0 -16 4 -25 10 -21 6 3 10 32 10 64 0
32 3 61 7 65 17 16 25 -33 19 -113z"/>
<path d="M6933 6125 c0 -22 2 -30 4 -17 2 12 2 30 0 40 -3 9 -5 -1 -4 -23z"/>
<path d="M6835 6120 c14 -49 66 -175 77 -185 14 -13 4 18 -34 115 -29 75 -58
121 -43 70z"/>
<path d="M7556 6110 c8 -43 33 -105 39 -98 6 6 -22 98 -36 118 -8 11 -9 6 -3
-20z"/>
<path d="M9990 6095 c46 -77 132 -205 141 -211 21 -12 5 18 -59 117 -69 104
-133 179 -82 94z"/>
<path d="M8932 6068 c-46 -118 -53 -190 -23 -247 l18 -34 6 63 c4 35 7 88 7
119 1 31 5 76 10 101 4 25 7 46 5 48 -1 1 -12 -21 -23 -50z"/>
<path d="M4890 6079 c0 -8 15 -53 34 -101 38 -97 52 -158 61 -263 10 -118 16
-155 26 -155 14 0 11 143 -6 228 -20 100 -52 195 -83 252 -30 55 -32 57 -32
39z"/>
<path d="M11510 6087 c0 -4 25 -36 55 -72 30 -35 55 -70 55 -77 0 -6 29 -71
65 -142 77 -157 123 -306 131 -425 l5 -86 -25 45 c-14 25 -25 40 -26 33 0 -18
55 -181 88 -258 17 -38 28 -72 26 -74 -10 -11 -238 115 -282 155 l-47 43 58 1
c50 0 58 3 55 18 -2 9 -24 27 -50 40 -27 12 -48 27 -48 32 0 5 7 7 15 4 24
-10 18 31 -10 64 -14 17 -25 39 -25 51 0 12 -15 51 -34 88 -19 38 -39 96 -45
130 -11 71 -28 108 -74 160 -24 28 -27 35 -12 29 47 -17 101 -18 118 -1 22 21
9 47 -44 93 -32 27 -37 38 -33 61 8 38 -15 56 -49 40 -14 -6 -28 -17 -31 -24
-2 -7 27 -43 65 -80 38 -37 68 -69 67 -70 -2 -1 -34 2 -71 8 -96 15 -102 4
-38 -73 28 -34 49 -66 46 -71 -4 -5 -18 -9 -32 -9 -25 0 -25 -1 -9 -25 9 -13
16 -38 16 -54 0 -19 11 -43 29 -63 39 -46 50 -69 49 -107 -1 -18 8 -44 20 -61
12 -16 22 -43 22 -59 0 -20 9 -39 27 -56 l28 -25 -50 0 -50 -1 50 -46 c67 -62
160 -130 218 -159 93 -48 46 -74 -96 -55 -122 16 -133 -1 -23 -34 67 -20 108
-19 195 7 52 15 78 19 90 12 23 -15 103 -138 91 -142 -5 -2 -22 6 -36 17 -35
28 -42 20 -14 -18 27 -39 50 -52 79 -44 32 8 22 39 -51 153 -66 103 -66 103
-107 365 -21 134 -41 214 -71 294 -12 30 -25 76 -30 102 -6 32 -25 70 -55 111
-24 34 -43 63 -41 66 2 2 17 -5 33 -15 l28 -18 -32 40 c-38 48 -183 192 -183
182z"/>
<path d="M2980 6060 c0 -10 5 -42 11 -71 8 -36 14 -47 20 -38 19 30 3 129 -21
129 -5 0 -10 -9 -10 -20z"/>
<path d="M6680 6056 c0 -16 21 -56 30 -56 6 0 4 12 -5 30 -14 27 -25 38 -25
26z"/>
<path d="M7170 6020 c0 -25 4 -39 10 -35 6 3 10 19 10 35 0 16 -4 32 -10 35
-6 4 -10 -10 -10 -35z"/>
<path d="M8767 6033 c-20 -38 -63 -178 -71 -230 -11 -72 12 -57 29 19 8 40 27
108 41 151 27 80 27 111 1 60z"/>
<path d="M7491 6025 c16 -47 79 -155 90 -155 12 0 -51 126 -80 160 l-21 25 11
-30z"/>
<path d="M8584 6024 c-34 -153 -58 -219 -74 -209 -7 4 -8 31 -5 73 6 59 5 65
-8 50 -8 -10 -17 -45 -20 -78 -9 -82 -41 -145 -109 -212 -32 -32 -58 -60 -58
-63 0 -29 134 83 160 135 11 22 33 54 49 72 45 53 64 98 72 178 7 78 5 103 -7
54z"/>
<path d="M3253 5997 c3 -27 10 -54 17 -60 9 -9 10 -2 5 33 -11 66 -27 87 -22
27z"/>
<path d="M4811 5994 c85 -219 98 -284 99 -476 0 -138 13 -188 26 -101 20 134
-17 389 -76 518 -29 65 -71 115 -49 59z"/>
<path d="M7645 5988 c27 -81 14 -282 -31 -502 -13 -66 -22 -122 -19 -125 10
-9 24 21 35 76 6 29 19 58 29 65 32 23 43 59 48 158 7 111 -10 245 -37 308
-20 44 -38 58 -25 20z m35 -413 c0 -8 -4 -17 -10 -20 -6 -4 -10 5 -10 20 0 15
4 24 10 20 6 -3 10 -12 10 -20z"/>
<path d="M9015 5944 c-9 -76 -1 -172 14 -187 8 -8 11 27 11 115 0 138 -14 178
-25 72z"/>
<path d="M9840 5981 c0 -33 41 -195 52 -206 14 -14 2 72 -23 158 -20 68 -29
83 -29 48z"/>
<path d="M6780 5975 c0 -10 47 -80 64 -94 25 -21 19 2 -13 47 -28 38 -51 60
-51 47z"/>
<path d="M7400 5945 c31 -58 120 -178 127 -171 7 7 -70 122 -118 176 l-31 35
22 -40z"/>
<path d="M10500 5965 c0 -7 92 -75 103 -75 15 0 -15 31 -55 56 -37 24 -48 28
-48 19z"/>
<path d="M9203 5913 c-12 -26 -24 -59 -27 -73 -13 -49 23 10 39 64 19 65 13
69 -12 9z"/>
<path d="M9306 5913 c-9 -26 -16 -65 -16 -87 l1 -41 15 27 c14 27 32 148 21
148 -3 0 -12 -21 -21 -47z"/>
<path d="M8622 5888 c-35 -87 -52 -138 -43 -138 9 0 38 59 62 129 22 62 22 61
11 61 -5 0 -18 -24 -30 -52z"/>
<path d="M6562 5895 c0 -16 2 -22 5 -12 2 9 2 23 0 30 -3 6 -5 -1 -5 -18z"/>
<path d="M6600 5911 c-1 -31 133 -182 147 -167 3 3 -10 25 -30 48 -77 92 -116
132 -117 119z"/>
<path d="M9093 5905 c-9 -26 4 -95 23 -116 26 -29 33 -23 23 19 -4 20 -11 54
-14 75 -6 38 -21 49 -32 22z"/>
<path d="M9417 5827 c-27 -27 -55 -46 -62 -43 -14 5 -39 -26 -55 -69 -12 -33
3 -32 20 1 8 14 28 31 45 38 27 11 115 113 104 119 -2 1 -26 -20 -52 -46z"/>
<path d="M9360 5850 c-7 -13 -7 -20 -1 -20 6 0 15 9 21 20 7 13 7 20 1 20 -6
0 -15 -9 -21 -20z"/>
<path d="M4720 5852 c0 -6 18 -46 40 -89 22 -43 49 -114 60 -158 21 -87 45
-293 36 -302 -7 -7 -9 1 -30 111 -18 92 -42 163 -52 153 -3 -3 4 -43 16 -89
12 -49 23 -132 27 -205 3 -68 10 -123 15 -123 46 0 60 296 20 443 -24 89 -90
235 -115 256 -10 7 -17 9 -17 3z"/>
<path d="M5483 5815 c0 -27 2 -38 4 -22 2 15 2 37 0 50 -2 12 -4 0 -4 -28z"/>
<path d="M6480 5852 c0 -16 57 -195 74 -232 l16 -35 -6 40 c-12 85 -84 278
-84 227z"/>
<path d="M3921 5815 c-1 -84 19 -262 34 -307 17 -48 42 -68 32 -25 -14 53 -47
263 -48 296 0 20 -4 45 -9 56 -7 16 -9 11 -9 -20z"/>
<path d="M10522 5728 c88 -133 152 -260 169 -336 7 -33 22 -59 52 -89 55 -57
67 -54 23 6 -20 27 -36 52 -36 55 0 4 14 -1 31 -9 17 -9 33 -14 36 -11 3 3
-20 35 -51 72 -31 36 -56 71 -56 78 0 27 -223 356 -242 356 -4 0 29 -55 74
-122z"/>
<path d="M7892 5815 c0 -16 2 -22 5 -12 2 9 2 23 0 30 -3 6 -5 -1 -5 -18z"/>
<path d="M8256 5779 c-39 -89 -97 -251 -92 -256 2 -3 20 28 40 69 38 80 89
228 81 236 -3 3 -15 -19 -29 -49z"/>
<path d="M10530 5826 c0 -18 83 -116 161 -190 76 -74 111 -96 90 -58 -13 24
-251 259 -251 248z"/>
<path d="M8076 5809 c-3 -8 -15 -59 -27 -114 -12 -55 -39 -151 -60 -213 -44
-127 -48 -155 -22 -150 37 7 194 362 193 435 -1 30 -26 -22 -51 -102 -22 -73
-111 -259 -129 -270 -15 -9 -13 -4 20 69 48 108 104 335 86 353 -3 3 -8 0 -10
-8z"/>
<path d="M5414 5778 c3 -18 8 -51 11 -73 9 -56 15 -75 26 -75 5 0 7 10 5 23
-3 12 -10 50 -17 85 -12 65 -34 100 -25 40z"/>
<path d="M6583 5775 c0 -22 2 -30 4 -17 2 12 2 30 0 40 -3 9 -5 -1 -4 -23z"/>
<path d="M8301 5725 c-33 -79 -61 -153 -61 -162 0 -3 6 0 14 6 20 17 88 190
84 215 -2 14 -14 -5 -37 -59z"/>
<path d="M9501 5786 c-7 -8 -19 -12 -26 -10 -18 7 -44 -43 -52 -101 -8 -59 9
-59 47 2 44 69 68 153 31 109z m-37 -68 c-10 -18 -19 -28 -21 -21 -5 15 15 53
28 53 5 0 2 -15 -7 -32z"/>
<path d="M9970 5794 c0 -17 105 -225 108 -215 4 12 -93 221 -102 221 -3 0 -6
-3 -6 -6z"/>
<path d="M9813 5740 c0 -25 2 -35 4 -22 2 12 2 32 0 45 -2 12 -4 2 -4 -23z"/>
<path d="M9571 5735 c-20 -26 -38 -91 -29 -101 3 -2 17 23 32 57 31 67 29 84
-3 44z"/>
<path d="M7400 5749 c0 -3 9 -32 21 -65 51 -146 32 -305 -57 -483 -29 -58 -51
-108 -48 -110 12 -12 41 19 66 70 15 31 42 105 60 165 41 138 44 248 10 335
-20 50 -51 103 -52 88z"/>
<path d="M7582 5708 c-2 -45 -18 -88 -32 -88 -5 0 -10 9 -10 19 0 25 -19 75
-26 69 -3 -3 2 -48 11 -99 21 -117 14 -192 -25 -300 -35 -93 -37 -113 -10 -81
45 54 103 311 97 435 -1 45 -4 65 -5 45z"/>
<path d="M3295 5687 c-10 -63 4 -270 21 -327 8 -25 14 -69 14 -97 0 -42 -4
-55 -20 -65 -31 -20 -25 -34 33 -76 66 -49 125 -114 133 -147 4 -15 1 -52 -6
-83 -10 -49 -9 -61 4 -87 9 -16 16 -44 16 -62 0 -40 44 -170 68 -203 11 -14
30 -26 44 -28 22 -3 27 -10 33 -48 3 -24 17 -56 29 -71 13 -16 27 -38 30 -51
4 -13 18 -27 31 -32 16 -6 27 -22 35 -49 20 -77 30 -56 30 68 0 74 -4 121 -10
121 -5 0 -10 -6 -10 -12 0 -7 -9 -24 -20 -38 l-20 -25 0 33 c0 39 25 102 47
119 33 26 24 183 -11 183 -7 0 -20 8 -29 18 -22 25 -23 167 -2 219 19 45 19
73 -1 98 -15 19 -16 18 -10 -17 12 -69 -25 -40 -72 57 -16 33 -41 96 -56 140
-46 140 -74 169 -154 158 -34 -5 -43 -2 -48 12 -9 22 37 65 69 65 12 0 42 -20
69 -47 55 -54 73 -51 34 5 -61 89 -82 99 -152 77 -20 -6 -21 -2 -27 64 -6 76
-20 111 -42 111 -8 0 -15 6 -15 13 0 7 -6 22 -14 32 -13 18 -15 16 -21 -28z
m75 -221 c0 -19 -4 -38 -10 -41 -6 -4 -10 10 -10 34 0 23 5 41 10 41 6 0 10
-15 10 -34z m146 -140 c27 -21 8 -48 -42 -59 -73 -15 -68 -47 8 -47 36 0 68
-20 68 -44 0 -7 14 -33 30 -59 17 -26 30 -51 30 -54 0 -3 -31 24 -69 60 -38
37 -75 67 -82 67 -7 0 -25 -12 -40 -26 -24 -23 -30 -24 -50 -13 l-23 12 23 8
c21 8 22 12 16 72 -8 72 -1 83 55 90 19 2 40 5 46 5 5 1 19 -4 30 -12z m-1
-217 c50 -46 60 -71 18 -44 -36 23 -83 66 -83 77 0 18 22 6 65 -33z m105 -124
c19 -19 32 -35 29 -35 -3 0 -20 16 -39 35 -19 19 -32 35 -29 35 3 0 20 -16 39
-35z m10 -77 c0 -18 -17 -6 -34 25 l-19 32 26 -24 c15 -14 27 -28 27 -33z
m-78 -26 c5 -18 15 -32 23 -32 21 0 19 -53 -2 -93 l-18 -32 -6 55 c-7 70 -16
90 -40 90 -23 0 -24 8 -2 32 22 24 35 19 45 -20z m84 -119 c-25 -104 -49 -183
-56 -183 -5 0 -7 10 -5 23 2 12 6 41 9 65 8 53 35 122 48 122 6 0 7 -11 4 -27z
m54 -72 c0 -57 -15 -121 -29 -121 -14 0 -31 25 -31 47 0 30 39 133 51 133 5 0
9 -26 9 -59z m49 -103 c0 -43 -30 -120 -48 -126 -11 -4 -13 5 -8 46 10 86 58
153 56 80z"/>
<path d="M7921 5684 c-12 -48 -7 -70 9 -44 9 14 14 90 6 90 -2 0 -9 -21 -15
-46z"/>
<path d="M10107 5678 c17 -59 42 -112 49 -105 2 2 -7 37 -21 78 -14 41 -25 75
-25 77 0 1 -4 2 -9 2 -6 0 -3 -24 6 -52z"/>
<path d="M5502 5680 c0 -19 2 -27 5 -17 2 9 2 25 0 35 -3 9 -5 1 -5 -18z"/>
<path d="M6378 5680 c-13 -66 -16 -120 -7 -125 13 -9 20 34 17 100 -3 53 -4
56 -10 25z"/>
<path d="M9626 5687 c-15 -23 -46 -102 -46 -118 0 -5 4 -9 8 -9 9 0 22 26 53
103 19 49 10 64 -15 24z"/>
<path d="M6055 5660 c13 -61 63 -206 64 -184 1 29 -47 196 -61 209 -7 7 -8 -1
-3 -25z"/>
<path d="M6274 5674 c4 -10 10 -48 13 -84 5 -51 8 -60 16 -43 11 24 -8 129
-25 139 -8 5 -9 1 -4 -12z"/>
<path d="M3581 5584 c5 -35 29 -100 66 -177 61 -128 59 -120 63 -299 0 -31 20
-19 20 12 0 16 5 52 11 81 10 45 9 59 -9 103 -11 28 -20 69 -20 91 -1 43 -42
169 -49 148 -2 -6 2 -36 11 -67 8 -31 11 -56 7 -56 -11 0 -69 121 -83 173 -17
64 -26 59 -17 -9z"/>
<path d="M4550 5634 c0 -5 20 -49 45 -99 26 -50 51 -117 57 -152 12 -64 33
-91 24 -30 -3 17 -8 50 -11 72 -8 48 -69 177 -96 201 -10 9 -19 13 -19 8z"/>
<path d="M6190 5588 c0 -31 3 -39 10 -28 13 20 13 57 0 65 -6 4 -10 -11 -10
-37z"/>
<path d="M7333 5554 c5 -72 18 -106 33 -91 10 10 -17 167 -29 167 -6 0 -8 -27
-4 -76z"/>
<path d="M9668 5555 c-37 -83 -57 -155 -41 -155 9 0 21 27 59 135 35 101 25
113 -18 20z"/>
<path d="M6026 5573 c-9 -57 -7 -113 4 -113 6 0 10 32 10 75 0 41 -2 75 -4 75
-2 0 -6 -17 -10 -37z"/>
<path d="M3883 5525 c6 -83 23 -145 52 -189 29 -44 35 -18 9 39 -14 29 -32 91
-40 137 -9 46 -18 85 -21 88 -3 3 -3 -31 0 -75z"/>
<path d="M4481 5538 c47 -117 68 -185 75 -246 5 -47 10 -62 20 -58 7 3 18 -3
24 -12 8 -15 11 -15 20 -2 22 34 3 230 -22 230 -6 0 -8 -6 -5 -12 2 -7 1 -21
-2 -31 -5 -14 -19 4 -60 77 -61 110 -81 132 -50 54z"/>
<path d="M8733 5584 c-7 -3 -13 -12 -13 -19 0 -49 -25 -117 -56 -154 -57 -66
-70 -53 -29 29 36 71 44 113 24 126 -13 8 -29 -13 -29 -40 0 -10 -18 -60 -39
-110 -21 -50 -42 -99 -45 -109 -9 -28 22 -33 48 -7 13 12 35 23 47 25 13 2 49
11 79 20 30 8 66 15 81 15 15 0 32 7 39 15 7 8 24 15 39 15 l26 -1 -27 -20
c-29 -22 -37 -49 -15 -49 7 0 22 7 33 15 29 22 41 18 53 -16 9 -26 13 -29 30
-19 11 5 23 15 26 20 12 19 26 10 20 -11 -14 -43 -6 -86 24 -133 70 -112 112
-309 117 -555 2 -96 7 -178 12 -183 6 -6 18 -1 31 14 19 19 23 21 32 8 16 -24
1 -100 -27 -137 -47 -61 -3 -74 56 -15 27 27 40 51 48 87 6 28 14 199 18 380
3 182 10 357 13 390 l7 60 7 -95 c22 -293 34 -924 18 -949 -16 -24 -31 22 -31
93 0 36 -4 66 -9 66 -13 0 -31 -90 -31 -150 0 -43 3 -50 20 -50 12 0 26 -12
36 -32 9 -18 22 -40 29 -48 7 -8 30 -73 51 -143 39 -135 51 -157 88 -157 29 0
46 -18 46 -49 0 -30 8 -42 35 -57 10 -6 23 -25 27 -42 6 -21 22 -40 47 -57 68
-42 213 -201 316 -345 37 -52 106 -139 154 -193 47 -54 122 -142 166 -196 44
-54 96 -112 115 -129 43 -37 117 -139 248 -342 118 -183 167 -278 216 -419 64
-184 81 -285 96 -571 21 -399 -18 -520 -168 -520 -65 0 -115 -32 -235 -149
-165 -160 -190 -203 -151 -259 22 -32 76 -30 103 4 33 42 28 56 -16 49 l-38
-7 50 47 c28 26 91 86 140 135 95 92 94 92 241 130 54 13 62 24 89 117 l23 78
6 -50 c16 -110 21 -111 27 -5 9 144 9 281 0 250 -4 -14 -11 90 -15 230 -8 249
-23 397 -45 439 -17 30 -21 26 -14 -11 11 -62 -14 -15 -81 155 -68 169 -101
237 -116 237 -5 0 -12 10 -16 23 -4 12 -28 54 -54 92 -76 113 -101 171 -127
299 -14 67 -27 123 -30 126 -3 3 -2 -33 2 -80 l7 -84 -49 54 c-69 76 -78 90
-59 90 14 0 13 6 -3 48 -10 26 -22 78 -26 116 -6 62 -8 67 -23 53 -14 -15 -17
-15 -29 1 -13 15 -13 14 -8 -8 4 -14 20 -60 36 -104 17 -43 27 -81 23 -85 -7
-7 -147 139 -229 239 -60 73 -91 129 -101 179 -7 31 -5 34 14 29 26 -7 26 -15
7 108 -8 54 -15 159 -15 232 0 113 2 132 16 132 35 0 75 -182 73 -334 l-2 -91
-12 89 c-14 92 -40 176 -56 176 -5 0 -4 -11 1 -25 5 -13 17 -96 26 -182 9 -87
20 -165 26 -173 6 -10 8 0 4 33 -7 61 8 53 25 -13 7 -28 15 -50 18 -50 3 0 5
89 3 197 -3 185 -2 197 13 182 10 -10 20 -38 22 -63 l6 -47 24 36 c46 68 84
30 82 -84 l0 -56 -17 64 c-35 132 -61 72 -69 -154 -3 -97 -1 -174 5 -195 8
-28 10 1 11 133 1 126 4 168 13 165 6 -2 16 -17 21 -34 6 -16 15 -32 20 -36 6
-3 16 -37 22 -75 l11 -68 8 135 c8 148 16 171 65 188 32 11 52 -1 26 -15 -14
-8 -14 -17 -1 -79 8 -38 17 -109 21 -159 11 -139 26 -150 21 -15 -5 157 11
219 28 110 3 -19 13 -102 21 -185 19 -184 27 -232 71 -412 33 -137 61 -220 69
-211 2 2 -3 30 -11 63 -81 309 -128 705 -84 705 15 0 28 -64 50 -255 24 -203
47 -343 62 -365 12 -19 6 54 -22 268 -12 90 -20 175 -18 190 l3 27 18 -27 c14
-20 21 -58 28 -145 26 -352 55 -593 73 -611 11 -10 6 65 -19 284 -25 219 -32
394 -17 394 5 0 16 -8 25 -18 12 -14 17 -37 17 -87 0 -69 38 -381 65 -546 8
-47 26 -119 40 -159 14 -40 25 -87 26 -104 0 -17 7 -47 15 -66 14 -34 14 -33
9 37 -5 72 -22 159 -50 263 -9 30 -31 174 -51 319 -19 145 -37 268 -40 273
-10 15 13 8 29 -10 31 -34 47 -105 77 -350 17 -136 32 -254 35 -262 8 -26 -5
281 -16 388 -6 57 -9 105 -7 107 2 3 20 -20 40 -50 33 -51 37 -62 42 -152 8
-120 22 -225 37 -278 19 -66 21 -24 4 91 -15 102 -13 179 6 214 12 23 16 2 29
-130 6 -63 19 -171 30 -240 10 -69 23 -150 27 -180 7 -46 12 -56 30 -58 42 -6
47 -24 32 -130 -20 -151 -18 -316 5 -382 11 -30 18 -75 17 -100 -1 -25 -3
-130 -4 -235 -2 -194 8 -270 39 -296 26 -21 26 -2 -1 85 -21 65 -26 96 -20
128 10 65 11 137 1 193 -9 48 -8 49 9 35 17 -14 18 -11 12 79 -6 77 -4 98 10
121 15 26 15 37 0 153 -23 172 -23 182 8 132 52 -85 66 -270 55 -725 -4 -177
-5 -333 0 -348 l7 -27 7 30 c4 17 9 39 11 50 3 11 9 218 15 460 8 360 8 451
-3 503 -8 35 -10 65 -6 67 4 3 26 -10 48 -27 185 -149 189 -153 209 -203 65
-161 122 -495 122 -722 0 -162 0 -162 -82 -202 -50 -24 -105 -79 -248 -249
-158 -188 -178 -242 -89 -242 14 0 19 -7 19 -29 0 -17 6 -31 16 -35 8 -3 61 4
117 15 179 38 170 34 97 47 -36 7 -70 19 -76 27 -16 21 -36 19 -78 -10 -20
-14 -39 -25 -42 -25 -10 0 40 65 98 128 32 34 67 80 78 101 30 61 83 98 161
115 33 7 132 95 108 96 -9 0 -19 -6 -22 -14 -3 -7 -45 -30 -93 -50 -110 -46
-143 -71 -194 -146 -38 -57 -93 -102 -153 -128 -35 -15 -37 -15 -37 0 0 6 30
42 68 78 37 37 94 96 127 132 51 54 69 67 120 83 79 24 91 32 109 75 30 70 49
409 26 462 -10 22 -50 290 -45 296 2 2 8 -14 15 -35 18 -55 33 -67 25 -18 -20
116 -109 445 -121 445 -3 0 -2 -21 2 -46 10 -69 -14 -53 -41 26 -27 82 -171
373 -271 550 -95 168 -157 257 -305 435 -140 169 -355 475 -456 648 -13 20
-34 42 -47 47 -16 6 -28 21 -34 42 -11 42 -34 46 -77 14 -18 -14 -36 -26 -38
-26 -3 0 -8 24 -12 53 -4 28 -17 75 -30 102 l-22 50 -8 -30 c-11 -42 -37 -85
-51 -85 -14 0 -19 14 -30 80 -3 25 -19 63 -34 85 -15 22 -34 60 -42 85 -11 35
-22 49 -50 62 -40 19 -58 55 -83 167 -9 38 -22 77 -29 87 -13 17 -14 16 -25
-4 -19 -35 -28 -26 -34 32 -3 30 -12 67 -20 82 -13 26 -19 28 -66 25 l-51 -2
0 80 c0 44 -4 83 -10 86 -6 3 -10 52 -10 110 0 84 -3 106 -15 113 -9 5 -22 37
-30 76 -8 37 -27 93 -44 125 -20 39 -34 92 -46 162 -9 57 -17 105 -19 106 -2
2 -20 -24 -40 -57 -21 -34 -43 -59 -49 -57 -7 2 -13 30 -15 64 -3 55 -5 60
-22 56 -12 -3 -20 0 -20 7 0 6 9 14 20 17 12 3 19 10 17 16 -8 24 -27 16 -52
-20 l-27 -38 6 40 c3 22 9 78 13 124 l6 84 -34 -5 c-19 -3 -42 -9 -53 -13 -16
-7 -18 -5 -14 21 3 16 12 44 19 62 12 30 12 34 -3 43 -16 9 -16 12 -3 33 8 12
12 25 9 29 -18 17 -89 -41 -111 -91 -16 -38 -33 -34 -33 9 0 39 22 89 49 113
23 21 28 46 9 46 -7 0 -33 -16 -57 -35 -24 -19 -46 -35 -48 -35 -2 0 -16 9
-32 21 -17 12 -50 22 -87 26 -32 3 -81 16 -109 28 -38 17 -76 24 -155 29 -58
3 -111 3 -117 0z m62 -110 c-17 -44 -39 -64 -70 -64 -14 0 -14 3 -1 28 8 15
29 47 47 72 27 36 34 41 37 26 2 -10 -4 -38 -13 -62z m95 56 c0 -5 11 -10 25
-10 34 0 31 -16 -7 -40 -64 -39 -98 -19 -62 35 16 25 44 34 44 15z m265 -114
c-9 -19 -23 -40 -31 -47 -23 -19 -18 25 6 46 11 10 20 27 20 39 0 14 3 17 11
9 8 -8 6 -21 -6 -47z m-147 -43 c6 -19 -25 -16 -32 3 -4 11 -1 14 11 12 9 -2
18 -9 21 -15z m75 -15 c4 -12 4 -24 1 -27 -6 -7 -24 20 -24 37 0 21 17 13 23
-10z m153 -30 c-22 -31 -21 -197 1 -488 16 -216 16 -226 -2 -263 -12 -26 -21
-35 -28 -28 -14 14 -21 582 -9 700 8 73 14 98 28 108 25 18 30 0 10 -29z
m-150 -89 c10 -17 -13 -36 -27 -22 -12 12 -4 33 11 33 5 0 12 -5 16 -11z m215
-152 c12 -153 8 -675 -5 -696 -7 -11 -10 -11 -17 0 -5 8 -9 24 -9 37 0 13 -7
36 -15 52 -13 25 -13 29 2 34 15 6 16 35 10 310 -6 313 -1 441 15 413 4 -9 13
-76 19 -150z m-131 -70 c0 -30 -4 -46 -10 -42 -5 3 -10 32 -10 63 0 41 3 53
10 42 5 -8 10 -37 10 -63z m249 -20 c17 -45 31 -213 46 -552 8 -187 17 -366
21 -397 5 -49 3 -58 -10 -58 -8 0 -20 9 -26 19 -15 29 -28 232 -35 541 -3 151
-8 319 -12 373 -6 96 -1 119 16 74z m104 -254 c4 -131 16 -364 27 -518 23
-317 25 -411 9 -420 -6 -4 -13 -5 -16 -2 -10 11 -23 160 -38 442 -31 605 -30
735 3 735 5 0 12 -107 15 -237z m67 -50 c5 -65 14 -237 20 -383 11 -291 24
-410 44 -389 2 2 -2 87 -10 189 -18 245 -19 673 -1 668 12 -5 14 -22 37 -483
16 -328 46 -585 70 -609 7 -7 9 -1 6 19 -17 104 -41 394 -52 631 -7 144 1 263
16 248 5 -5 14 -76 20 -159 6 -82 15 -186 20 -230 6 -44 17 -169 25 -278 23
-294 35 -377 55 -377 14 0 19 60 26 290 3 124 10 241 15 261 9 37 35 57 51 41
14 -14 22 -82 9 -82 -6 0 -11 5 -11 10 0 6 -5 10 -11 10 -24 0 9 -464 42 -592
15 -58 27 -45 17 20 -32 226 -32 327 0 407 l17 40 6 -30 c4 -16 7 -122 8 -235
1 -188 11 -324 25 -338 17 -16 18 28 6 241 -14 258 -11 293 21 233 19 -35 20
-56 20 -338 0 -165 -2 -302 -4 -304 -3 -4 -110 164 -136 214 -7 13 -13 49 -14
80 -2 65 -20 73 -25 12 l-3 -40 -89 81 c-91 83 -111 115 -125 196 -10 63 -20
60 -17 -5 2 -48 1 -54 -10 -37 -6 11 -17 25 -24 32 -26 27 -38 142 -60 588
-26 543 -27 585 -9 548 8 -18 19 -85 25 -150z m127 0 c-3 -10 -5 -2 -5 17 0
19 2 27 5 18 2 -10 2 -26 0 -35z m96 -436 c-3 -13 2 -75 11 -137 19 -133 21
-199 6 -184 -23 23 -53 328 -34 347 12 12 21 -2 17 -26z m-303 -369 c0 -10 -4
-18 -9 -18 -12 0 -21 26 -21 58 l1 27 14 -25 c8 -14 14 -33 15 -42z m328 -128
c3 -43 0 -70 -6 -70 -14 0 -22 36 -22 105 0 85 23 56 28 -35z m1367 -1439 c4
-86 2 -118 -4 -101 -13 34 -31 223 -24 251 l6 23 9 -24 c5 -13 11 -80 13 -149z
m93 12 c94 -154 109 -192 80 -209 -16 -10 -36 21 -58 94 -25 79 -30 88 -41 71
-15 -24 -10 -118 11 -201 23 -88 22 -120 -2 -73 -22 42 -37 121 -48 260 -11
135 -12 155 -6 155 2 0 31 -44 64 -97z m72 -317 c0 -42 -19 -20 -26 30 -5 37
-4 38 10 20 9 -11 16 -33 16 -50z m91 23 c15 -30 18 -44 10 -52 -7 -7 -14 -7
-20 -1 -10 11 -26 94 -17 94 3 0 15 -19 27 -41z m58 -111 c5 -13 16 -40 25
-60 9 -21 12 -38 7 -38 -9 0 -51 90 -51 109 0 18 10 12 19 -11z m-172 -145
c-3 -10 -5 -2 -5 17 0 19 2 27 5 18 2 -10 2 -26 0 -35z m256 -87 c17 -13 24
-36 10 -36 -10 0 -43 32 -43 42 0 12 12 10 33 -6z m-315 -120 c-2 -28 -7 -50
-13 -49 -13 3 -25 71 -18 101 4 18 8 20 20 11 9 -8 13 -28 11 -63z m429 -3
c-3 -10 -5 -4 -5 12 0 17 2 24 5 18 2 -7 2 -21 0 -30z m40 -165 c-3 -7 -5 -2
-5 12 0 14 2 19 5 13 2 -7 2 -19 0 -25z m-792 -569 c0 -8 -10 -15 -22 -17 -25
-4 -30 7 -11 26 15 15 33 10 33 -9z m-243 -96 c-40 -50 -110 -118 -116 -112
-7 6 123 149 136 149 5 0 -4 -17 -20 -37z m1056 -145 c-6 -16 -57 -46 -98 -58
-50 -14 -32 11 31 42 60 31 73 34 67 16z"/>
<path d="M10500 5577 c0 -5 33 -54 74 -110 92 -127 96 -136 96 -189 0 -24 7
-53 14 -64 20 -28 124 -99 133 -90 4 4 -18 31 -49 60 -49 47 -57 61 -64 103
-4 32 -21 70 -50 113 -44 67 -153 191 -154 177z"/>
<path d="M8419 5505 c-33 -18 -48 -53 -56 -128 -7 -72 5 -71 42 3 26 52 40 66
50 51 9 -16 35 -1 51 32 15 28 15 30 -3 25 -13 -3 -24 2 -32 13 -13 22 -18 23
-52 4z"/>
<path d="M8573 5508 c-6 -7 -30 -49 -53 -93 -59 -110 -78 -135 -101 -135 -10
0 -19 -6 -19 -13 0 -17 -52 -67 -69 -67 -13 0 -13 4 5 68 4 12 2 22 -4 22 -15
0 -41 -45 -51 -90 -5 -23 -19 -52 -30 -64 -12 -12 -21 -28 -21 -34 0 -24 30
-11 92 39 35 28 81 59 104 69 41 18 84 62 84 85 0 7 21 57 47 110 31 64 43 99
36 106 -7 7 -13 6 -20 -3z"/>
<path d="M9970 5502 c0 -28 43 -148 48 -134 4 13 -35 152 -43 152 -3 0 -5 -8
-5 -18z"/>
<path d="M11137 5473 c26 -106 146 -286 216 -324 31 -17 18 5 -54 91 -41 51
-87 120 -112 172 -42 87 -64 112 -50 61z"/>
<path d="M4450 5477 c0 -8 9 -40 20 -72 11 -32 20 -75 20 -96 0 -21 5 -41 12
-45 16 -10 4 117 -17 179 -16 44 -35 63 -35 34z"/>
<path d="M5498 5468 c-15 -37 -20 -222 -9 -380 13 -185 23 -258 42 -303 21
-51 23 -3 3 83 -13 58 -19 143 -23 347 -3 149 -9 262 -13 253z"/>
<path d="M6195 5408 c-27 -57 -31 -78 -15 -78 13 0 37 48 45 93 10 52 -2 46
-30 -15z"/>
<path d="M3820 5400 c0 -39 3 -51 10 -40 5 8 10 26 10 40 0 14 -5 32 -10 40
-7 11 -10 -1 -10 -40z"/>
<path d="M5627 5140 c3 -173 9 -337 14 -365 10 -55 80 -207 86 -188 3 7 -9 48
-25 90 -39 101 -50 181 -62 475 -15 350 -19 347 -13 -12z"/>
<path d="M4720 5435 c0 -5 11 -50 25 -100 21 -74 25 -112 25 -219 0 -104 2
-127 13 -117 8 8 12 49 12 134 -1 98 -5 136 -23 192 -21 67 -51 131 -52 110z"/>
<path d="M5897 5396 c-9 -60 -8 -519 2 -636 6 -78 7 -70 15 110 9 215 -4 611
-17 526z"/>
<path d="M6405 5405 c-3 -14 -7 -36 -10 -49 -3 -13 -1 -35 3 -47 8 -20 10 -17
20 24 7 25 12 55 12 66 0 30 -19 35 -25 6z"/>
<path d="M8284 5395 c-16 -39 -18 -61 -5 -69 14 -9 30 17 37 62 8 53 -11 57
-32 7z"/>
<path d="M9707 5381 c-31 -57 -36 -81 -11 -60 17 14 54 82 54 99 0 23 -18 7
-43 -39z"/>
<path d="M6250 5360 c1 -14 7 -38 16 -55 l14 -30 -4 44 c-5 48 -26 83 -26 41z"/>
<path d="M5792 5091 c0 -153 -4 -295 -7 -315 -8 -39 -25 -49 -25 -14 0 38 -41
532 -45 543 -7 20 -5 -145 5 -300 13 -200 36 -379 52 -408 12 -21 12 -20 20
18 13 65 23 755 11 755 -7 0 -10 -97 -11 -279z"/>
<path d="M9757 5337 c-13 -51 -19 -162 -9 -152 12 12 31 164 21 170 -4 3 -9
-5 -12 -18z"/>
<path d="M7296 5250 c-16 -47 -44 -121 -63 -164 -35 -82 -37 -98 -10 -69 27
31 65 116 87 196 31 114 21 141 -14 37z"/>
<path d="M7205 5290 c-9 -17 -39 -90 -66 -163 -28 -72 -64 -160 -80 -195 -29
-64 -37 -98 -21 -88 18 11 75 140 133 302 57 159 70 213 34 144z"/>
<path d="M5978 5206 c-5 -60 -7 -195 -7 -300 l2 -191 8 165 c5 91 8 226 6 300
l-2 135 -7 -109z"/>
<path d="M8109 5283 c-33 -84 -76 -166 -91 -174 -9 -5 -26 -9 -37 -9 -43 0
-121 -95 -109 -132 3 -7 -5 -20 -16 -29 -12 -10 -18 -20 -14 -24 15 -16 45 8
71 58 15 30 43 69 62 87 l35 34 1 -40 c1 -38 1 -38 12 -13 7 14 24 40 40 58
15 18 27 38 27 45 0 7 9 21 20 31 16 14 60 110 60 130 0 3 -11 5 -25 5 -18 0
-28 -8 -36 -27z"/>
<path d="M5564 5110 c8 -186 24 -348 37 -370 6 -11 8 -5 9 20 0 59 -40 503
-46 509 -4 3 -3 -68 0 -159z"/>
<path d="M10595 5245 c8 -41 85 -277 96 -295 6 -9 7 9 3 49 -8 71 -9 71 59 18
21 -16 41 -27 44 -23 7 6 -33 61 -89 124 -21 23 -41 56 -45 72 -3 17 -11 30
-18 30 -8 0 -23 12 -35 28 l-21 27 6 -30z"/>
<path d="M6734 5225 c-7 -29 -1 -41 15 -30 14 8 14 55 1 55 -5 0 -12 -11 -16
-25z"/>
<path d="M6075 5144 c-7 -91 -2 -296 11 -451 5 -58 2 -86 -16 -145 -35 -116
-102 -238 -132 -238 -12 0 -10 25 7 56 8 16 15 40 14 54 -1 39 -36 -45 -63
-149 -13 -55 -32 -100 -50 -124 -16 -21 -26 -40 -23 -43 3 -3 27 22 54 57 74
96 104 129 118 129 31 0 23 -23 -35 -100 -60 -82 -69 -103 -49 -115 15 -10 45
20 92 90 56 83 126 165 142 165 15 0 25 -22 25 -55 0 -40 15 -37 74 15 32 28
61 50 66 50 5 0 12 10 15 21 4 12 34 66 68 120 33 55 58 102 54 105 -3 3 -36
-38 -73 -90 -58 -83 -84 -111 -84 -91 0 3 18 40 40 83 33 63 42 93 51 165 6
56 18 105 33 135 13 26 31 79 40 117 35 142 45 160 64 107 8 -23 4 -44 -25
-118 -38 -95 -53 -198 -35 -230 10 -16 11 -14 12 16 1 55 25 147 63 235 18 44
37 94 41 110 6 29 6 29 -9 10 -18 -23 -25 -16 -47 43 -7 17 -15 32 -18 32 -10
0 -30 -45 -55 -125 l-23 -70 -8 105 c-9 132 -19 106 -32 -83 -5 -76 -12 -141
-16 -144 -20 -21 -35 63 -36 205 0 61 -4 112 -9 112 -13 0 -34 -184 -28 -240
3 -27 18 -75 33 -106 23 -49 26 -64 20 -118 -8 -84 -64 -197 -112 -226 -61
-39 -56 -11 15 75 30 37 37 51 27 55 -12 4 -10 18 9 80 14 41 22 76 20 79 -8
7 -11 1 -55 -104 -22 -55 -50 -115 -61 -133 -10 -18 -19 -41 -19 -51 0 -9 -7
-26 -16 -37 -31 -39 -6 61 48 186 l51 121 -13 82 c-7 51 -11 144 -9 245 2 89
1 162 -3 162 -7 0 -15 -100 -23 -309 -10 -246 -47 -390 -136 -531 l-41 -65 6
50 c3 27 21 99 40 160 47 153 48 164 30 294 -11 81 -15 168 -12 289 1 94 0
172 -4 172 -3 0 -9 -43 -13 -96z"/>
<path d="M7997 5233 c-12 -11 -8 -23 7 -23 8 0 16 7 20 15 5 15 -14 21 -27 8z"/>
<path d="M11130 5194 c11 -25 24 -73 30 -108 11 -67 31 -129 79 -245 17 -41
31 -80 31 -89 0 -18 -13 -9 -99 66 -75 66 -81 48 -8 -22 68 -66 237 -159 237
-131 0 4 -21 31 -47 59 -62 68 -202 346 -175 346 5 0 24 -16 43 -36 32 -34
115 -94 129 -94 4 0 -27 35 -69 78 -45 45 -92 107 -116 149 -45 82 -64 97 -35
27z"/>
<path d="M6585 5219 c-10 -30 -22 -130 -13 -121 10 10 30 123 23 130 -2 3 -7
-1 -10 -9z"/>
<path d="M7072 5213 c-5 -10 -29 -63 -52 -118 -23 -55 -65 -144 -92 -198 -27
-55 -47 -104 -45 -110 11 -34 132 205 183 362 23 71 26 103 6 64z"/>
<path d="M8182 5186 c-64 -70 -134 -181 -130 -208 5 -35 44 -36 79 -2 34 32
37 54 9 54 -27 0 -25 7 11 60 32 48 82 140 75 140 -2 0 -22 -20 -44 -44z"/>
<path d="M3817 5150 c-19 -16 -40 -44 -47 -61 -12 -27 -11 -33 3 -40 12 -7 15
-18 10 -39 -12 -64 42 -103 162 -115 l70 -7 -23 23 c-20 21 -32 24 -97 24
l-75 0 0 36 c0 51 20 149 36 181 19 36 3 36 -39 -2z"/>
<path d="M6842 5159 c-5 -13 -12 -48 -16 -77 -10 -76 9 -57 24 23 13 67 8 97
-8 54z"/>
<path d="M9867 5165 c-12 -30 -37 -153 -36 -178 0 -12 12 19 25 68 13 50 23
99 21 110 l-2 20 -8 -20z"/>
<path d="M7760 5076 c-77 -68 -152 -148 -175 -186 -5 -8 -14 -58 -21 -111 -9
-75 -17 -104 -38 -135 -27 -41 -35 -79 -13 -72 23 8 77 89 77 117 0 15 9 54
20 85 16 46 17 61 7 77 -8 13 -9 24 -2 33 31 43 142 163 164 177 37 23 74 65
69 79 -2 6 -42 -22 -88 -64z"/>
<path d="M6670 5059 c0 -54 -4 -71 -26 -100 -66 -88 -113 -206 -124 -313 -8
-74 -13 -84 -69 -168 -35 -51 -61 -101 -61 -115 0 -18 -4 -24 -15 -19 -10 4
-15 -1 -15 -14 0 -14 -7 -20 -21 -20 -21 0 -22 -21 -2 -27 14 -5 54 38 90 94
16 25 41 48 65 59 62 28 224 212 204 232 -8 7 -37 -23 -130 -136 -32 -40 -65
-72 -73 -72 -20 0 3 40 71 124 40 48 82 121 142 244 46 97 83 180 81 185 -4
12 -64 -87 -117 -192 -57 -115 -87 -161 -105 -161 -28 0 -16 55 35 160 28 56
64 121 80 144 27 38 28 44 19 91 -15 77 -29 79 -29 4z"/>
<path d="M6941 5063 c-74 -101 -156 -260 -129 -251 7 3 20 18 28 34 8 16 45
79 81 139 86 143 82 135 71 135 -5 0 -28 -26 -51 -57z"/>
<path d="M10595 5063 c8 -62 32 -129 73 -203 57 -103 48 -55 -18 101 -46 108
-60 133 -55 102z"/>
<path d="M3914 5040 c-23 -9 -39 -28 -31 -36 8 -8 77 24 77 35 0 13 -17 13
-46 1z"/>
<path d="M6793 4929 c-54 -85 -95 -168 -90 -182 4 -14 35 30 92 135 56 105 55
137 -2 47z"/>
<path d="M10557 4930 c7 -82 7 -86 4 -200 l-3 -95 -24 50 -24 50 5 -40 c3 -22
9 -115 14 -206 5 -91 13 -174 19 -185 14 -26 61 -69 68 -62 3 4 -2 20 -10 37
-17 32 -46 142 -46 175 0 14 17 1 60 -44 66 -71 88 -75 42 -8 -35 51 -62 103
-62 118 0 7 8 9 20 5 26 -8 25 3 -5 75 -17 41 -25 78 -25 117 l0 58 36 -62
c55 -97 77 -97 27 0 -14 29 -43 104 -64 167 l-38 115 6 -65z"/>
<path d="M7405 4824 c-60 -69 -137 -151 -171 -182 l-61 -57 -8 -95 c-12 -141
-12 -151 6 -163 38 -24 129 52 129 107 0 16 -12 9 -55 -34 -58 -57 -68 -55
-36 8 24 47 56 77 104 97 32 13 37 18 27 30 -10 12 -2 27 46 81 91 102 144
165 155 186 22 42 -18 13 -124 -89 -62 -60 -128 -121 -146 -138 l-35 -30 19
30 c14 23 213 292 268 363 5 6 6 12 1 11 -5 0 -58 -57 -119 -125z"/>
<path d="M7717 4917 c-29 -28 -33 -62 -7 -62 18 0 43 48 38 73 -3 14 -8 13
-31 -11z"/>
<path d="M9901 4903 c-16 -59 -29 -153 -21 -153 7 0 23 69 35 148 8 52 -1 55
-14 5z"/>
<path d="M4485 4895 c9 -52 45 -157 57 -170 14 -14 1 55 -24 130 -25 75 -43
96 -33 40z"/>
<path d="M7921 4907 c-18 -23 -42 -87 -35 -98 13 -22 64 53 64 96 0 19 -14 20
-29 2z"/>
<path d="M11650 4890 c11 -16 25 -32 30 -35 5 -3 19 -19 30 -35 l22 -30 -49
25 c-79 42 -64 -2 31 -94 l45 -44 -2 29 c-2 23 2 30 21 32 39 6 25 35 -54 110
-79 75 -110 93 -74 42z"/>
<path d="M7160 4758 c-63 -72 -134 -146 -157 -165 -24 -20 -43 -44 -43 -54 0
-11 -4 -19 -10 -19 -17 0 -33 -41 -21 -53 8 -8 25 3 61 42 101 107 299 365
289 375 -2 3 -56 -54 -119 -126z"/>
<path d="M11325 4870 c11 -38 54 -102 87 -129 50 -41 43 -14 -18 61 -77 97
-78 97 -69 68z"/>
<path d="M5101 4708 c-7 -79 -14 -159 -17 -178 -3 -33 -3 -32 12 10 14 41 34
310 23 310 -3 0 -11 -64 -18 -142z"/>
<path d="M3887 4813 c-10 -9 -9 -43 1 -43 10 0 42 33 42 43 0 9 -35 9 -43 0z"/>
<path d="M7715 4788 c-31 -17 -85 -71 -85 -84 0 -30 22 -21 69 28 62 64 68 85
16 56z"/>
<path d="M4467 4690 c3 -58 10 -109 15 -115 14 -13 3 160 -11 195 -8 18 -9 -3
-4 -80z"/>
<path d="M11140 4727 c0 -7 32 -69 70 -136 39 -68 69 -125 67 -127 -2 -3 -30
23 -63 56 -63 65 -83 76 -60 32 34 -66 158 -148 235 -154 46 -4 51 17 7 32
-47 15 -115 92 -182 207 -55 93 -74 116 -74 90z"/>
<path d="M11984 4703 c7 -43 26 -285 26 -317 -1 -14 -13 2 -36 44 -19 36 -32
54 -29 40 21 -90 66 -386 75 -495 16 -180 31 -222 24 -70 -2 66 -8 257 -13
425 -7 239 -12 316 -25 358 -20 61 -30 68 -22 15z"/>
<path d="M7236 4714 c-11 -28 -6 -39 9 -20 8 11 15 23 15 28 0 14 -18 9 -24
-8z"/>
<path d="M9952 4700 c0 -19 2 -27 5 -17 2 9 2 25 0 35 -3 9 -5 1 -5 -18z"/>
<path d="M3939 4701 c-13 -11 -21 -22 -17 -26 8 -8 68 22 68 35 0 16 -26 11
-51 -9z"/>
<path d="M4642 4670 c0 -14 2 -19 5 -12 2 6 2 18 0 25 -3 6 -5 1 -5 -13z"/>
<path d="M11257 4641 c29 -57 163 -191 191 -191 9 0 -14 28 -54 68 -39 37 -92
92 -118 122 l-47 55 28 -54z"/>
<path d="M11660 4666 c0 -7 19 -35 42 -61 36 -41 43 -45 48 -29 11 29 -9 73
-41 89 -35 19 -49 19 -49 1z"/>
<path d="M5451 4652 c-24 -45 -42 -310 -25 -356 16 -42 24 -4 25 122 0 75 4
162 8 192 9 62 8 71 -8 42z"/>
<path d="M3990 4610 c-16 -10 -8 -23 18 -26 9 0 29 -5 45 -9 40 -11 35 13 -8
31 -40 16 -36 16 -55 4z"/>
<path d="M6300 4595 c-6 -8 -8 -20 -4 -26 5 -9 11 -7 21 6 23 33 9 51 -17 20z"/>
<path d="M10471 4525 c-1 -110 9 -225 20 -225 9 0 -1 268 -12 295 -5 12 -8
-15 -8 -70z"/>
<path d="M4611 4523 c-7 -39 -11 -84 -9 -100 3 -19 8 -6 17 44 7 39 11 84 9
100 -3 19 -8 6 -17 -44z"/>
<path d="M5001 4518 c-7 -35 -21 -81 -31 -103 -36 -76 -38 -166 -4 -179 13 -5
14 2 9 47 -5 39 -2 68 13 112 18 56 38 185 29 185 -3 0 -10 -28 -16 -62z"/>
<path d="M5593 4563 c-4 -10 -7 -53 -8 -97 0 -63 3 -81 17 -89 26 -17 31 -2
13 34 -13 25 -16 49 -13 101 5 69 3 82 -9 51z"/>
<path d="M6771 4547 c-16 -8 -25 -22 -26 -42 -1 -16 -6 -64 -10 -106 -6 -58
-5 -78 5 -84 10 -6 12 -1 7 25 -7 30 -5 32 18 28 17 -4 25 -1 25 8 0 8 7 14
17 14 15 0 14 2 -2 20 -15 17 -16 24 -5 50 7 17 26 42 43 56 25 21 28 27 16
35 -20 12 -60 11 -88 -4z"/>
<path d="M3831 4536 c-8 -9 -11 -59 -9 -152 l3 -139 33 0 c17 0 32 -3 32 -7 0
-5 -4 -8 -10 -8 -19 0 -10 -46 25 -130 19 -47 35 -91 35 -98 0 -7 8 -29 19
-50 39 -77 167 -705 211 -1037 32 -246 58 -678 66 -1110 6 -302 5 -326 -15
-424 -36 -171 -148 -453 -182 -457 -9 -1 -50 -19 -90 -39 -41 -20 -114 -50
-162 -66 -102 -33 -119 -45 -184 -125 -26 -33 -71 -86 -101 -119 -30 -33 -62
-77 -73 -97 -24 -46 -26 -108 -4 -108 9 0 20 -11 25 -24 12 -32 58 -41 135
-27 32 6 60 11 62 11 2 0 3 4 3 9 0 5 -10 11 -22 13 -15 2 -26 13 -32 33 -14
41 -13 41 -36 20 -11 -10 -20 -13 -20 -8 0 30 217 308 264 338 24 16 122 35
178 35 41 0 78 14 78 30 0 5 -15 13 -32 18 -28 7 -33 13 -33 37 0 20 6 31 18
33 13 3 17 -3 17 -23 0 -25 2 -26 17 -14 21 18 110 205 158 334 65 173 68 220
59 715 -13 630 -11 692 22 930 l29 205 5 -292 c3 -160 8 -295 13 -299 4 -4 7
1 7 12 0 41 20 322 26 367 19 148 24 -23 24 -790 0 -902 -1 -906 -54 -1108
-49 -183 -87 -229 -256 -308 -96 -45 -113 -57 -195 -142 -102 -105 -140 -134
-157 -117 -8 8 -4 20 15 44 15 18 55 71 90 117 86 117 108 136 182 161 82 27
97 45 29 36 -66 -10 -130 -42 -159 -80 -96 -125 -188 -253 -196 -273 -5 -13
-9 -45 -9 -70 0 -27 -7 -55 -18 -71 -28 -40 -32 -59 -17 -72 11 -9 18 -4 33
27 39 75 306 364 351 378 30 9 41 -4 16 -19 -52 -29 -300 -310 -342 -387 -12
-22 -19 -47 -16 -54 6 -18 64 -35 116 -35 44 0 77 -15 77 -34 0 -31 57 -34 94
-5 26 21 27 21 48 3 39 -36 211 -14 249 32 17 21 10 23 -46 13 -28 -5 -81 -10
-119 -10 -57 -1 -72 3 -85 19 -9 10 -24 22 -35 26 -14 5 -17 12 -11 34 10 42
45 87 162 209 76 78 117 113 138 118 57 11 78 20 83 34 7 20 -75 8 -126 -18
-20 -10 -98 -84 -172 -163 -149 -158 -214 -218 -236 -218 -8 0 -17 13 -21 31
-3 17 -14 34 -24 38 -17 6 -11 17 48 91 174 222 200 241 348 259 141 18 200
51 89 51 l-55 0 21 30 c30 42 83 161 135 304 47 133 64 229 85 490 9 115 12
333 3 246 -22 -219 -31 -44 -25 470 8 716 -21 1053 -133 1525 -55 237 -141
470 -195 532 -19 21 -30 45 -30 63 0 16 -5 32 -10 35 -6 4 -22 30 -36 58 -15
29 -33 60 -42 70 -22 24 -60 21 -99 -9 -38 -28 -40 -22 -18 50 19 64 19 102
-1 110 -21 8 -20 8 -33 -8z m109 -221 c0 -14 -4 -25 -10 -25 -5 0 -10 11 -10
25 0 14 5 25 10 25 6 0 10 -11 10 -25z m50 -99 c21 -56 54 -326 40 -326 -3 0
-16 60 -28 133 -12 72 -26 151 -31 175 -9 45 3 58 19 18z m-41 -88 c16 -45 -3
-32 -27 17 -12 25 -22 49 -22 53 1 13 39 -42 49 -70z m128 -255 c-3 -10 -5 -4
-5 12 0 17 2 24 5 18 2 -7 2 -21 0 -30z m132 -579 c13 -267 14 -384 2 -384
-15 0 -21 102 -26 450 -4 366 4 343 24 -66z m-63 106 c8 -40 14 -94 12 -119
l-3 -46 -18 75 c-10 41 -21 100 -24 130 -8 79 13 53 33 -40z m135 -167 c11
-166 6 -343 -11 -343 -13 0 -19 80 -26 324 -7 228 0 319 17 231 4 -22 13 -118
20 -212z m49 73 c0 -8 -4 -18 -10 -21 -5 -3 -10 3 -10 14 0 12 5 21 10 21 6 0
10 -6 10 -14z m-80 -554 c0 -15 -4 -33 -9 -41 -12 -19 -25 22 -17 55 8 31 26
22 26 -14z m-561 -2090 c-100 -132 -171 -202 -204 -202 l-26 0 17 33 c23 45
275 295 281 279 3 -7 -28 -57 -68 -110z"/>
<path d="M9951 4500 c0 -30 3 -62 9 -70 18 -29 22 0 7 62 l-15 63 -1 -55z"/>
<path d="M11625 4530 c-4 -6 12 -19 37 -30 46 -21 88 -26 88 -10 0 23 -113 60
-125 40z"/>
<path d="M10031 4490 c-1 -54 8 -90 21 -90 11 0 3 77 -12 114 -7 16 -9 11 -9
-24z"/>
<path d="M4061 4480 c23 -13 99 -29 99 -21 0 13 -49 31 -83 31 -24 -1 -28 -3
-16 -10z"/>
<path d="M4660 4449 c0 -24 5 -71 10 -104 5 -33 12 -78 15 -100 l6 -40 -18 24
c-10 13 -26 44 -35 70 l-17 46 -1 -38 c0 -66 38 -115 171 -215 84 -63 93 -50
16 24 -38 36 -75 80 -82 98 -8 18 -23 86 -34 151 -22 128 -31 153 -31 84z"/>
<path d="M11600 4481 c0 -4 14 -25 30 -46 40 -50 93 -158 88 -181 -2 -14 -15
-6 -60 35 -32 29 -63 51 -68 49 -6 -2 8 -33 31 -68 63 -98 99 -179 99 -225 -1
-35 -2 -38 -14 -22 -17 21 -26 22 -26 1 0 -13 -7 -11 -34 9 -18 15 -36 23 -39
20 -4 -3 9 -34 28 -68 45 -79 48 -153 6 -112 -17 15 -13 -15 18 -130 12 -46
21 -95 19 -110 -3 -26 -4 -26 -33 18 -41 61 -43 31 -5 -63 24 -62 30 -91 30
-152 0 -42 -3 -76 -7 -76 -5 0 -26 28 -47 63 -62 99 -53 51 20 -102 37 -78 64
-144 61 -148 -10 -9 -45 25 -87 87 -37 55 -70 90 -70 75 0 -12 66 -123 105
-179 33 -46 46 -98 27 -110 -5 -3 -37 42 -71 100 -35 58 -65 103 -68 101 -2
-3 25 -63 61 -135 36 -71 74 -156 85 -188 42 -125 97 -226 168 -309 19 -22 41
-64 50 -95 18 -64 21 -69 32 -51 12 19 44 -4 92 -67 82 -108 95 -170 58 -283
-35 -106 -34 -105 -77 -60 -20 21 -44 40 -52 43 -12 4 -13 8 -2 20 10 12 8 20
-8 41 -26 33 -26 45 0 22 11 -10 23 -16 26 -13 11 12 -147 248 -166 248 -6 0
0 -17 13 -37 14 -21 38 -60 56 -87 42 -68 42 -108 -1 -69 -28 25 -23 -4 7 -39
14 -16 25 -42 25 -57 0 -19 15 -40 54 -77 30 -28 62 -67 71 -85 10 -19 29 -46
43 -61 53 -57 11 -36 -67 33 -45 39 -84 69 -87 66 -3 -3 15 -31 40 -62 25 -30
46 -65 46 -76 0 -11 12 -43 27 -72 24 -49 27 -64 34 -247 9 -217 15 -298 25
-324 5 -13 2 -17 -12 -14 -17 3 -19 -3 -15 -70 2 -46 -1 -78 -9 -87 -18 -22
12 -114 50 -150 38 -36 38 -23 0 57 -34 72 -36 81 -14 98 11 10 14 28 12 70
-2 37 2 63 11 73 10 13 10 23 1 53 -8 23 -10 59 -5 102 10 89 8 199 -4 240
-11 38 2 43 24 8 34 -52 45 -128 70 -501 9 -126 22 -285 30 -352 8 -67 15
-157 15 -200 1 -73 2 -76 15 -53 18 32 18 96 0 262 -8 73 -21 241 -30 373 -8
132 -18 257 -21 278 -3 20 -2 37 3 37 5 0 35 -27 68 -60 32 -33 78 -68 100
-79 24 -11 68 -50 105 -91 46 -52 66 -68 74 -60 7 7 10 56 9 137 -1 69 1 132
6 140 11 20 39 -48 91 -222 50 -166 63 -193 56 -115 -2 30 -22 109 -44 175
-22 66 -47 166 -56 221 -24 155 -104 387 -161 469 -47 68 -102 131 -108 125
-3 -3 16 -37 42 -75 73 -109 191 -389 206 -489 12 -77 -9 -48 -45 62 -40 119
-91 245 -97 238 -3 -2 11 -52 31 -109 50 -146 61 -277 22 -277 -9 0 -15 23
-19 83 -5 80 -31 177 -47 177 -4 0 -10 23 -12 51 -3 27 -9 54 -15 60 -5 5 -7
-5 -5 -27 8 -66 -26 -38 -78 65 -45 88 -102 162 -115 149 -4 -3 11 -29 32 -57
66 -87 134 -304 104 -334 -8 -8 -11 -7 -11 6 0 9 -4 17 -10 17 -13 0 -13 -102
0 -171 6 -30 19 -66 30 -82 36 -48 4 -29 -52 31 -50 54 -77 108 -79 158 0 11
-6 1 -13 -21 l-12 -40 -7 30 c-19 88 -30 221 -48 594 l-10 214 -105 111 c-174
183 -267 316 -290 412 -17 77 -40 462 -27 475 6 6 21 -38 43 -128 29 -122 58
-209 60 -176 0 20 -50 224 -77 313 -26 86 -33 207 -15 274 6 23 11 15 37 -60
16 -48 31 -82 33 -75 2 6 -15 88 -38 181 -40 166 -41 172 -26 213 23 63 38
160 38 257 1 121 -40 226 -126 318 -30 32 -46 40 -46 23z m490 -2543 c0 -14
-18 -9 -24 8 -11 28 -6 39 9 20 8 -11 15 -23 15 -28z m-11 -135 c52 -79 66
-127 34 -121 -9 2 -25 27 -37 58 -12 30 -29 69 -39 87 -16 31 -22 53 -13 53 3
0 28 -35 55 -77z m408 -413 c38 -108 57 -180 49 -180 -10 0 -117 150 -131 182
-13 32 -14 52 -5 125 5 49 10 93 11 98 0 6 8 -17 18 -50 10 -33 36 -112 58
-175z m-7 155 c0 -8 -4 -17 -10 -20 -6 -4 -10 5 -10 20 0 15 4 24 10 20 6 -3
10 -12 10 -20z"/>
<path d="M6576 4438 c-56 -74 -101 -169 -134 -278 -3 -11 -6 -9 -13 8 -4 12
-13 22 -19 22 -26 0 -100 -107 -100 -145 0 -23 24 -18 50 10 13 14 28 25 34
24 6 -1 17 -1 24 0 19 1 132 111 132 128 0 17 -15 17 -30 -2 -16 -20 -30 -19
-30 2 0 24 63 132 110 189 22 27 40 54 40 61 0 25 -39 13 -64 -19z"/>
<path d="M11140 4446 c0 -23 67 -147 128 -236 64 -95 150 -165 193 -158 20 3
14 9 -37 35 -84 43 -138 108 -213 252 -34 66 -64 121 -67 121 -2 0 -4 -6 -4
-14z"/>
<path d="M10424 4340 c1 -78 7 -114 20 -138 9 -19 20 -32 23 -29 2 3 -2 38
-11 79 -9 40 -20 100 -25 133 -9 56 -10 53 -7 -45z"/>
<path d="M6883 4408 c-26 -29 -46 -68 -36 -68 5 0 19 7 31 16 21 14 22 14 22
-10 0 -14 -4 -28 -10 -31 -14 -9 -13 -82 2 -91 6 -4 21 5 36 21 18 21 22 35
17 54 -9 36 -9 60 0 99 7 29 6 32 -17 32 -13 0 -34 -10 -45 -22z"/>
<path d="M10100 4386 c0 -40 8 -66 21 -66 10 0 12 44 3 78 -9 34 -24 26 -24
-12z"/>
<path d="M10368 4394 c-25 -24 17 -204 64 -277 42 -65 48 -45 9 30 -16 33 -35
88 -41 124 -23 122 -25 131 -32 123z"/>
<path d="M7003 4373 c-15 -5 -18 -33 -4 -33 5 0 19 9 32 20 22 18 23 19 4 19
-11 0 -26 -3 -32 -6z"/>
<path d="M4090 4362 c0 -5 18 -17 40 -27 22 -10 40 -23 40 -30 0 -7 17 -38 37
-69 35 -53 53 -69 53 -46 0 18 -83 151 -99 159 -27 14 -71 22 -71 13z"/>
<path d="M6647 4321 c-21 -36 -22 -61 -2 -61 16 0 35 38 35 71 0 27 -13 24
-33 -10z"/>
<path d="M5620 4295 c-32 -33 -39 -45 -27 -45 21 0 63 42 70 70 3 11 4 20 3
20 -1 0 -22 -20 -46 -45z"/>
<path d="M10182 4230 c-1 -60 16 -121 36 -128 18 -6 15 34 -5 65 -10 14 -20
47 -24 72 l-6 46 -1 -55z"/>
<path d="M11320 4231 c0 -16 38 -56 84 -89 25 -18 46 -29 46 -24 0 5 -24 35
-54 66 -51 52 -76 68 -76 47z"/>
<path d="M11833 4215 c3 -11 13 -80 23 -153 9 -73 18 -131 20 -129 2 2 8 26
13 53 7 35 6 55 -4 74 -7 14 -17 54 -24 89 -6 36 -16 69 -22 75 -8 8 -10 6 -6
-9z"/>
<path d="M6706 4199 c-30 -24 -32 -55 -4 -73 24 -15 38 2 45 53 6 47 -2 51
-41 20z"/>
<path d="M6587 4186 c-21 -32 -32 -76 -19 -76 17 0 52 51 52 76 0 31 -13 31
-33 0z"/>
<path d="M4830 4179 c14 -25 89 -99 101 -99 16 0 9 11 -42 66 -53 55 -78 70
-59 33z"/>
<path d="M5541 4178 c-10 -25 1 -44 18 -34 14 9 14 56 1 56 -6 0 -15 -10 -19
-22z"/>
<path d="M6058 4154 c-42 -41 -55 -71 -40 -86 14 -14 28 -3 58 47 38 66 28 86
-18 39z"/>
<path d="M6267 4105 c-9 -9 -21 -24 -26 -33 -8 -14 -13 -15 -30 -4 -30 18 -31
16 -31 -31 0 -55 23 -89 58 -85 20 2 28 9 30 28 2 14 10 47 19 73 17 55 7 80
-20 52z"/>
<path d="M11190 4094 c0 -15 58 -105 93 -142 37 -39 106 -76 160 -86 57 -10
44 6 -25 34 -63 25 -139 89 -201 170 -14 19 -26 30 -27 24z"/>
<path d="M5736 4048 c-8 -32 -7 -48 3 -48 13 0 24 51 13 62 -6 6 -12 0 -16
-14z"/>
<path d="M6060 4050 c-8 -5 -27 -10 -42 -10 -17 0 -28 -5 -28 -14 0 -9 -7 -12
-20 -9 -24 6 -38 -21 -20 -42 14 -16 31 -11 86 26 52 35 74 81 24 49z"/>
<path d="M5800 4025 c0 -14 5 -25 10 -25 6 0 10 11 10 25 0 14 -4 25 -10 25
-5 0 -10 -11 -10 -25z"/>
<path d="M5897 4013 c-13 -21 -21 -107 -9 -99 6 4 14 22 18 40 7 41 2 77 -9
59z"/>
<path d="M11920 4012 c0 -7 15 -59 34 -115 42 -127 107 -446 109 -541 2 -58
-1 -71 -14 -74 -22 -4 -28 16 -39 128 -15 158 -29 165 -30 15 -1 -105 -3 -125
-13 -105 l-11 25 -3 -25 c-2 -14 12 -73 32 -130 20 -58 44 -127 53 -154 12
-35 49 -86 134 -184 64 -75 122 -138 128 -140 21 -7 8 16 -56 93 -107 131
-136 211 -149 405 -4 52 -13 154 -21 225 -7 72 -14 172 -14 224 0 87 -2 94
-25 113 -14 11 -25 28 -25 39 0 43 -89 242 -90 201z"/>
<path d="M4950 3971 c0 -6 11 -33 24 -59 18 -36 22 -52 14 -66 -7 -13 -7 -30
1 -56 6 -20 11 -59 11 -86 l0 -49 -20 33 c-11 17 -22 32 -26 32 -3 0 -3 -34 1
-75 5 -53 4 -75 -4 -75 -6 0 -11 5 -11 10 0 6 -4 10 -10 10 -5 0 -10 -16 -10
-35 0 -19 -10 -53 -21 -75 -18 -34 -20 -51 -15 -96 7 -62 30 -124 45 -124 5 0
1 30 -10 67 -24 84 -24 89 0 96 13 3 20 17 25 50 4 25 14 51 21 57 8 7 15 20
15 30 0 10 11 40 25 67 22 41 26 63 26 140 1 82 -2 96 -27 142 -29 54 -54 83
-54 62z"/>
<path d="M10394 3966 c-8 -21 -1 -49 14 -54 14 -4 32 36 25 56 -7 17 -32 15
-39 -2z"/>
<path d="M5300 3953 c0 -5 23 -24 51 -43 28 -19 55 -42 60 -52 13 -23 42 -24
37 0 -2 9 -32 36 -66 60 -63 41 -82 50 -82 35z"/>
<path d="M5688 3949 c-11 -6 -18 -22 -18 -42 0 -42 -15 -57 -57 -57 -18 0 -33
-4 -33 -10 0 -13 76 -13 102 1 35 19 65 119 36 119 -7 0 -21 -5 -30 -11z"/>
<path d="M10464 3916 c3 -21 13 -50 22 -64 28 -43 28 -7 0 50 l-26 53 4 -39z"/>
<path d="M11891 3866 c-2 -62 22 -261 31 -271 7 -7 8 8 4 45 -3 30 -8 91 -12
135 -7 87 -22 145 -23 91z"/>
<path d="M5110 3872 c0 -4 35 -40 78 -79 57 -51 89 -90 115 -140 20 -37 37
-62 37 -56 0 33 -87 230 -118 266 -20 23 -35 22 -27 -3 6 -18 4 -19 -20 -10
-14 6 -35 15 -46 20 -10 6 -19 7 -19 2z"/>
<path d="M5280 3872 c0 -10 63 -72 73 -72 15 0 6 20 -24 49 -30 30 -49 39 -49
23z"/>
<path d="M10541 3845 c-1 -39 9 -75 20 -75 13 0 10 41 -6 75 l-13 30 -1 -30z"/>
<path d="M11175 3819 c12 -39 50 -110 109 -205 33 -51 52 -90 45 -93 -19 -6
-92 54 -148 123 -55 68 -74 80 -48 29 25 -46 96 -122 142 -149 44 -25 145 -45
145 -27 0 5 -12 20 -26 34 -28 26 -67 97 -78 142 -3 15 -5 27 -3 27 2 0 26
-11 52 -25 26 -14 49 -24 52 -22 5 5 -88 90 -141 129 -46 33 -56 30 -28 -9 10
-15 23 -39 26 -53 4 -14 10 -33 13 -44 11 -41 -19 -1 -57 74 -40 79 -70 116
-55 69z"/>
<path d="M11770 3834 c0 -20 81 -289 91 -299 13 -13 3 36 -31 155 -25 88 -59
170 -60 144z"/>
<path d="M10600 3726 c0 -46 18 -92 30 -80 10 10 -14 114 -25 114 -3 0 -5 -15
-5 -34z"/>
<path d="M5216 3675 c21 -31 4 -33 -36 -3 -16 12 -33 19 -37 15 -11 -11 38
-57 61 -57 27 0 37 -8 62 -45 20 -29 85 -175 99 -222 13 -44 -11 -22 -49 45
-66 113 -91 152 -99 152 -13 0 1 -34 36 -93 18 -29 47 -97 66 -150 18 -53 37
-97 41 -97 13 0 20 41 20 112 0 98 -52 227 -132 331 -33 41 -58 51 -32 12z"/>
<path d="M10671 3660 c-1 -36 27 -162 39 -174 17 -17 11 32 -15 119 -13 44
-24 69 -24 55z"/>
<path d="M11010 3626 c0 -18 24 -65 31 -60 5 3 2 18 -6 35 -13 25 -25 37 -25
25z"/>
<path d="M10774 3550 c4 -54 53 -221 55 -188 1 23 -25 144 -43 198 l-16 45 4
-55z"/>
<path d="M10994 3498 c16 -83 149 -298 171 -276 4 3 -12 31 -34 60 -22 30 -61
98 -86 151 -25 53 -48 97 -51 97 -4 0 -4 -15 0 -32z"/>
<path d="M5070 3499 c0 -6 10 -44 22 -83 18 -57 23 -66 26 -43 4 30 -24 123
-39 132 -5 4 -9 1 -9 -6z"/>
<path d="M11130 3492 c0 -19 64 -103 98 -130 51 -41 121 -75 139 -68 21 8 6
26 -36 43 -55 23 -125 78 -156 123 -26 37 -45 51 -45 32z"/>
<path d="M4675 3423 c26 -61 68 -129 73 -115 4 14 -68 152 -80 152 -5 0 -1
-17 7 -37z"/>
<path d="M10460 3268 c0 -163 46 -468 70 -468 4 0 1 37 -6 83 -36 213 -44 278
-44 359 0 48 -4 90 -10 93 -6 4 -10 -21 -10 -67z"/>
<path d="M11200 3302 c0 -30 81 -144 154 -218 64 -64 116 -104 116 -89 0 3
-47 56 -105 116 -58 61 -117 132 -130 160 -27 52 -35 60 -35 31z"/>
<path d="M5071 3254 c-1 -27 5 -46 15 -55 15 -12 16 -10 9 21 -14 66 -24 79
-24 34z"/>
<path d="M11847 3283 c-26 -41 75 -553 108 -553 4 0 4 8 1 18 -2 9 -8 33 -11
52 l-7 35 43 -55 c57 -74 101 -120 113 -120 6 0 -7 17 -27 38 -39 40 -40 56
-1 46 33 -8 30 1 -17 54 -22 26 -43 59 -46 74 -3 15 -16 34 -29 43 -13 8 -24
23 -24 33 1 15 2 15 15 -2 8 -11 18 -16 22 -12 4 4 -12 25 -35 46 -23 22 -42
47 -42 57 0 10 -9 35 -20 56 -11 20 -20 56 -21 79 0 64 -13 125 -22 111z"/>
<path d="M5304 3180 c6 -135 -2 -139 -68 -39 -26 39 -50 68 -53 65 -3 -3 4
-31 16 -63 23 -63 40 -169 41 -247 l0 -49 -25 23 c-30 28 -30 37 -5 -130 19
-132 19 -166 1 -119 -45 118 -48 110 -26 -68 17 -134 10 -177 -19 -112 l-14
34 -1 -47 c-1 -26 11 -84 25 -128 14 -45 23 -84 21 -87 -9 -8 -96 110 -108
145 -6 17 -17 32 -25 32 -18 0 -18 -19 2 -65 8 -21 21 -77 29 -126 9 -64 25
-114 58 -186 48 -103 82 -212 75 -235 -3 -7 -14 7 -25 32 -23 51 -112 154
-113 130 0 -9 21 -49 47 -90 63 -102 92 -175 93 -232 0 -27 4 -48 8 -48 22 0
54 263 39 321 -4 13 -24 48 -47 78 -45 60 -49 71 -20 64 31 -8 24 13 -13 41
-37 28 -90 117 -85 141 2 11 15 4 48 -25 80 -70 98 -48 60 72 -23 73 -25 99
-8 116 8 8 12 45 13 100 0 48 4 93 8 100 5 6 12 52 17 100 5 49 24 149 41 223
34 143 42 290 20 339 -9 20 -11 10 -7 -60z"/>
<path d="M4704 3188 c14 -70 60 -202 63 -182 2 11 -10 64 -27 117 -31 96 -49
128 -36 65z"/>
<path d="M11890 3202 c0 -42 46 -150 95 -221 28 -42 66 -102 85 -135 36 -63
92 -134 209 -265 53 -58 69 -82 54 -77 -13 4 -23 4 -23 1 0 -4 44 -57 98 -119
133 -150 157 -184 192 -258 29 -62 32 -80 29 -203 -1 -22 11 -83 26 -135 37
-134 34 -127 45 -110 5 8 11 12 14 9 16 -16 38 -184 42 -324 4 -167 5 -166
-34 -72 -14 34 -32 50 -32 28 0 -13 70 -304 77 -321 10 -23 20 69 28 245 6
139 4 175 -15 275 -11 63 -30 187 -40 275 -13 102 -27 178 -40 208 -48 111
-240 410 -342 532 -32 39 -99 117 -148 175 -50 58 -106 134 -124 170 -19 36
-57 103 -85 149 -28 46 -51 91 -51 99 0 19 -41 92 -52 92 -4 0 -8 -8 -8 -18z
m790 -1221 c-1 -13 -4 -12 -15 3 -8 11 -15 27 -15 35 1 13 4 12 15 -3 8 -11
15 -27 15 -35z m-6 -103 c8 -29 18 -71 22 -93 10 -61 -12 -31 -30 41 -26 101
-19 146 8 52z m43 -20 c-3 -7 -5 -2 -5 12 0 14 2 19 5 13 2 -7 2 -19 0 -25z"/>
<path d="M4663 3048 c3 -13 16 -87 28 -165 23 -139 39 -183 39 -103 0 45 -33
221 -49 263 -13 33 -25 36 -18 5z"/>
<path d="M5032 3020 c0 -30 3 -64 8 -75 11 -26 11 56 0 100 -6 25 -8 20 -8
-25z"/>
<path d="M11507 2955 c18 -231 102 -407 299 -634 2 -2 6 -2 9 1 3 3 -39 72
-93 154 -109 164 -168 264 -155 263 4 0 43 -50 86 -110 44 -61 81 -108 84
-105 3 3 -26 58 -65 123 -70 117 -104 189 -148 313 l-23 65 6 -70z"/>
<path d="M11770 2977 c0 -61 93 -265 140 -309 16 -15 38 -45 50 -67 23 -45 46
-57 30 -16 -18 46 -38 80 -60 100 -31 28 -84 137 -105 215 -21 76 -32 100 -45
100 -6 0 -10 -11 -10 -23z"/>
<path d="M4907 2713 c-9 -15 7 -113 24 -146 17 -30 24 -4 9 32 -6 16 -14 50
-18 77 -5 30 -11 44 -15 37z"/>
<path d="M4660 2690 c0 -8 -9 -107 -20 -220 -24 -256 -24 -359 1 -150 10 85
23 174 28 197 14 52 14 153 1 173 -9 13 -10 13 -10 0z"/>
<path d="M11990 2676 c0 -10 59 -125 87 -169 44 -70 36 -30 -13 63 -42 80 -74
126 -74 106z"/>
<path d="M11325 2579 c12 -57 46 -139 57 -139 5 0 8 6 6 13 -3 6 -15 42 -27
79 -24 73 -48 105 -36 47z"/>
<path d="M12166 2558 c4 -7 20 -31 34 -53 37 -54 94 -169 135 -271 46 -113 58
-132 50 -76 -10 77 -121 310 -181 381 -25 30 -52 43 -38 19z"/>
<path d="M4902 2454 c-1 -12 -7 -67 -12 -121 -6 -61 -7 -109 -1 -124 8 -23 9
-23 15 11 4 19 5 85 4 145 -2 61 -5 100 -6 89z"/>
<path d="M11431 2425 c14 -49 19 -56 19 -24 0 14 -7 34 -15 45 -13 17 -13 15
-4 -21z"/>
<path d="M12200 2343 c21 -60 44 -135 51 -168 12 -52 14 -56 17 -28 4 44 -31
170 -68 243 -17 33 -32 60 -34 60 -2 0 13 -48 34 -107z"/>
<path d="M4296 2314 c-10 -25 -7 -141 3 -124 14 24 23 127 13 134 -6 3 -13 -1
-16 -10z"/>
<path d="M12370 2322 c0 -4 15 -30 34 -58 44 -65 102 -180 112 -219 9 -39 13
-46 24 -40 19 12 -62 197 -123 283 -28 39 -47 53 -47 34z"/>
<path d="M11510 2269 c0 -18 111 -219 151 -273 22 -31 29 -35 29 -20 0 11 -36
80 -80 154 -85 142 -100 163 -100 139z"/>
<path d="M11031 2236 c-2 -64 21 -330 30 -351 11 -29 11 18 -2 194 -11 148
-27 237 -28 157z"/>
<path d="M4851 2026 c6 -135 17 -186 39 -186 14 0 12 15 -5 57 -8 19 -15 44
-15 54 0 11 7 19 15 19 8 0 15 3 15 7 0 16 -43 178 -49 185 -3 4 -3 -57 0
-136z"/>
<path d="M11110 2093 c0 -68 23 -299 31 -313 12 -21 11 27 -2 190 -6 74 -15
139 -20 145 -5 5 -9 -3 -9 -22z"/>
<path d="M4573 1931 c5 -83 19 -121 42 -121 18 0 19 4 1 38 -8 15 -17 57 -21
95 -10 96 -29 87 -22 -12z"/>
<path d="M11717 1897 c5 -32 3 -36 -11 -31 -20 8 -20 1 0 -39 23 -45 54 -77
76 -77 11 0 18 -7 18 -18 0 -20 21 -42 58 -61 18 -9 22 -9 22 2 0 16 -100 177
-142 229 l-27 33 6 -38z m43 -89 c0 -14 -18 -9 -24 8 -11 28 -6 39 9 20 8 -11
15 -23 15 -28z"/>
<path d="M11182 1778 c1 -126 2 -134 8 -68 11 116 11 210 0 210 -6 0 -9 -53
-8 -142z"/>
<path d="M12220 1842 c0 -4 11 -62 25 -130 14 -68 25 -133 25 -145 0 -12 5
-29 11 -37 17 -24 2 143 -21 234 -11 43 -20 80 -20 82 0 2 -4 4 -10 4 -5 0
-10 -3 -10 -8z"/>
<path d="M4836 1799 c-12 -63 -7 -206 9 -219 8 -6 19 -9 25 -5 17 10 11 33
-10 40 -30 10 -24 25 10 25 17 0 30 4 30 9 0 4 -13 25 -30 46 -43 54 -41 69 6
39 34 -23 37 -15 13 32 -34 64 -45 71 -53 33z"/>
<path d="M5111 1720 c32 -117 20 -179 -21 -101 -20 41 -74 79 -85 61 -3 -5 10
-27 29 -48 34 -37 106 -173 106 -199 0 -20 -10 -16 -79 32 -96 67 -107 59 -38
-27 92 -111 103 -168 17 -83 -33 32 -62 57 -65 54 -3 -3 15 -32 40 -64 58 -74
58 -92 0 -35 -24 24 -48 41 -52 37 -3 -4 19 -44 50 -90 31 -46 59 -90 63 -100
10 -28 17 -20 49 51 28 62 30 76 33 207 4 162 -10 317 -33 351 -28 43 -34 25
-14 -46z"/>
<path d="M11163 1505 c0 -22 2 -30 4 -17 2 12 2 30 0 40 -3 9 -5 -1 -4 -23z"/>
<path d="M4829 1508 c-1 -7 0 -28 1 -45 1 -18 -3 -33 -9 -33 -14 0 -14 -35 -1
-61 17 -31 33 -22 28 17 -4 31 -2 35 15 30 13 -3 17 0 13 9 -3 8 -10 32 -16
54 -10 39 -29 56 -31 29z"/>
<path d="M11222 1465 c0 -16 2 -22 5 -12 2 9 2 23 0 30 -3 6 -5 -1 -5 -18z"/>
<path d="M4820 1241 c0 -20 17 -37 27 -28 7 8 -7 47 -18 47 -5 0 -9 -9 -9 -19z"/>
<path d="M4913 1243 c-22 -8 -14 -21 28 -45 44 -24 119 -126 119 -161 0 -16
-13 -6 -58 42 -50 53 -63 62 -88 59 -41 -4 -34 -19 22 -48 26 -14 50 -31 52
-39 5 -15 3 -15 -81 15 -61 21 -64 18 -107 -101 -143 -402 -243 -735 -220
-735 18 0 31 34 69 176 82 304 181 577 218 601 32 21 88 5 128 -37 37 -39 58
-38 85 5 21 34 21 37 6 87 -19 63 -74 141 -119 168 -34 21 -35 21 -54 13z"/>
<path d="M4425 989 c-15 -52 -30 -101 -33 -109 -3 -10 -2 -12 6 -5 14 13 65
180 60 196 -2 6 -17 -30 -33 -82z"/>
<path d="M4711 966 c-17 -41 -31 -85 -31 -97 0 -21 1 -21 20 -4 27 25 70 175
50 175 -5 0 -22 -33 -39 -74z"/>
<path d="M4366 801 c-17 -32 -22 -86 -7 -77 10 7 34 96 27 103 -2 3 -12 -9
-20 -26z"/>
<path d="M4630 791 c-5 -11 -10 -27 -10 -37 0 -13 3 -14 14 -5 7 6 14 23 14
36 0 30 -4 31 -18 6z"/>
<path d="M11068 745 c-79 -32 -110 -56 -175 -137 -30 -39 -76 -84 -101 -102
-25 -17 -60 -43 -78 -58 -27 -24 -40 -28 -94 -28 -70 0 -81 -20 -17 -31 20 -3
47 -17 60 -31 23 -25 75 -37 236 -54 64 -6 64 -6 188 57 164 84 242 154 268
239 7 22 6 23 -8 12 -8 -7 -34 -42 -57 -77 -42 -64 -53 -72 -133 -89 -44 -10
-48 0 -26 60 23 61 20 77 -11 49 -23 -21 -43 -78 -42 -121 1 -22 -7 -39 -28
-59 -25 -24 -36 -27 -91 -26 -34 0 -71 3 -83 6 -35 10 -135 59 -135 67 -1 4
25 25 57 47 55 37 87 69 158 157 19 23 66 58 118 87 47 26 86 50 86 52 0 10
-38 2 -92 -20z"/>
<path d="M11856 683 c12 -63 20 -88 25 -78 8 15 -11 115 -22 115 -6 0 -7 -15
-3 -37z"/>
<path d="M4602 685 c0 -16 2 -22 5 -12 2 9 2 23 0 30 -3 6 -5 -1 -5 -18z"/>
<path d="M10796 619 c-15 -12 -26 -30 -26 -45 0 -32 18 -31 33 4 6 15 21 35
32 44 30 26 -5 24 -39 -3z"/>
<path d="M1750 600 c-15 -5 46 -8 145 -8 94 0 181 4 195 8 15 5 -46 8 -145 8
-93 0 -181 -4 -195 -8z"/>
<path d="M9285 574 c-102 -20 -125 -27 -125 -35 0 -5 10 -7 23 -4 12 2 45 6
72 7 43 3 50 1 47 -15 -3 -20 6 -19 123 16 l70 21 -60 7 c-67 8 -120 9 -150 3z"/>
<path d="M2584 561 c7 -11 154 -26 164 -17 3 4 0 11 -8 16 -19 13 -163 13
-156 1z"/>
<path d="M5125 556 c-117 -27 -291 -64 -329 -71 -68 -11 -34 -13 93 -4 93 6
134 14 165 29 54 27 186 37 295 21 46 -7 85 -10 88 -7 3 2 -19 12 -47 20 -76
23 -194 28 -265 12z"/>
<path d="M4536 542 c-9 -16 2 -72 15 -72 11 0 11 37 0 64 -5 14 -10 16 -15 8z"/>
<path d="M5576 539 c-32 -5 -62 -12 -65 -15 -8 -9 221 5 256 16 38 11 -111 11
-191 -1z"/>
<path d="M8601 539 c-108 -14 -82 -22 47 -14 151 8 214 23 97 23 -44 0 -109
-4 -144 -9z"/>
<path d="M8993 540 c16 -5 38 -5 50 0 17 7 10 9 -28 9 -43 -1 -46 -2 -22 -9z"/>
<path d="M6173 528 c-70 -15 -53 -32 25 -24 83 9 112 16 112 27 0 11 -82 10
-137 -3z"/>
<path d="M6434 520 c-28 -11 -40 -30 -19 -30 17 0 75 27 75 35 0 8 -33 5 -56
-5z"/>
<path d="M8008 515 c-136 -19 -261 -45 -273 -57 -7 -7 -1 -9 20 -5 17 3 107
17 200 32 168 26 244 44 180 43 -16 0 -74 -6 -127 -13z"/>
<path d="M9704 516 c-10 -8 -16 -18 -12 -21 9 -10 48 1 73 19 19 15 19 15 -11
16 -16 0 -39 -6 -50 -14z"/>
<path d="M11014 496 c-7 -30 -2 -56 11 -59 6 -1 11 17 13 41 3 45 -13 58 -24
18z"/>
<path d="M1730 495 c-181 -16 -265 -37 -120 -30 52 2 131 7 175 11 66 5 78 4
68 -7 -13 -13 -18 -49 -8 -49 3 0 23 9 43 19 61 31 156 44 322 45 113 0 163
-3 185 -14 30 -14 29 -14 -40 -21 -38 -3 -78 -10 -87 -14 -29 -12 -20 -26 14
-23 27 2 33 -1 33 -17 0 -19 11 -21 144 -32 79 -7 204 -21 277 -32 143 -22
210 -27 184 -12 -19 11 -247 57 -354 71 -86 11 -97 15 -69 24 77 24 579 46
658 29 49 -11 57 -36 18 -57 -32 -17 -26 -21 12 -6 24 9 26 13 23 67 l-3 58
-70 -1 c-38 -1 -199 -13 -358 -28 l-287 -28 -48 29 -47 28 -260 2 c-147 0
-323 -5 -405 -12z m700 -75 c11 -7 6 -10 -20 -10 -26 0 -31 3 -20 10 8 5 17
10 20 10 3 0 12 -5 20 -10z"/>
<path d="M11975 493 c-72 -25 -134 -102 -149 -185 -4 -20 -31 -73 -61 -118
-30 -46 -56 -92 -57 -104 -2 -35 3 -71 12 -80 16 -16 307 57 358 90 27 18 62
72 62 96 0 10 18 45 40 79 39 60 60 114 60 153 0 29 -12 11 -36 -51 -11 -31
-29 -62 -40 -67 -32 -18 -43 -39 -50 -91 -9 -68 -50 -106 -137 -130 -63 -17
-65 -17 -113 4 -27 12 -60 21 -74 20 -14 0 -29 -1 -33 0 -11 1 13 44 30 54 18
11 68 111 83 167 12 45 59 99 125 146 39 28 30 35 -20 17z"/>
<path d="M5140 493 c-102 -17 -46 -33 115 -33 146 0 167 10 61 29 -59 11 -126
12 -176 4z"/>
<path d="M5863 480 c-104 -11 -169 -29 -188 -50 -16 -18 -15 -18 27 -3 23 8
94 20 156 26 102 10 117 9 144 -6 37 -21 101 -22 118 -2 11 13 8 15 -22 15
-19 0 -38 4 -44 10 -14 14 -110 19 -191 10z"/>
<path d="M5485 432 c-29 -16 -29 -17 -7 -20 32 -5 52 4 52 23 0 19 -7 18 -45
-3z"/>
<path d="M6915 439 c-100 -14 -95 -18 15 -13 58 3 112 10 120 15 19 11 -52 10
-135 -2z"/>
<path d="M8105 440 c-4 -6 7 -10 27 -10 25 0 29 3 18 10 -19 13 -37 13 -45 0z"/>
<path d="M4852 420 c-46 -4 -88 -12 -95 -19 -8 -8 -3 -11 19 -11 50 0 184 23
184 32 0 4 -6 7 -12 7 -7 -1 -50 -5 -96 -9z"/>
<path d="M4940 384 c-74 -19 -110 -34 -110 -46 0 -19 159 19 195 46 20 15 19
15 -5 15 -14 0 -50 -7 -80 -15z"/>
<path d="M11727 294 c-43 -43 -46 -50 -32 -61 19 -13 48 -6 42 11 -3 6 7 26
20 44 40 54 21 58 -30 6z"/>
<path d="M12017 298 c-33 -33 -35 -73 -6 -88 28 -15 35 -5 19 25 -12 22 -11
27 4 44 30 33 14 49 -17 19z"/>
<path d="M4321 276 c-51 -39 -74 -75 -60 -97 8 -12 11 -11 21 6 6 11 34 44 61
73 56 59 44 68 -22 18z"/>
<path d="M3065 293 c-54 -13 -32 -23 54 -23 70 0 92 3 89 13 -5 12 -104 20
-143 10z"/>
<path d="M3009 229 c-70 -9 -126 -26 -117 -35 3 -3 52 -1 109 5 57 6 134 13
172 16 37 4 67 11 67 16 0 11 -139 10 -231 -2z"/>
<path d="M2730 209 c-19 -5 -65 -6 -102 -3 -65 6 -138 -8 -138 -26 0 -4 7 -13
15 -20 11 -9 29 -10 77 -2 35 6 81 14 103 17 87 13 145 27 145 36 0 11 -53 10
-100 -2z"/>
<path d="M4443 170 c-65 -30 -80 -50 -40 -50 33 0 127 49 127 66 0 21 -18 17
-87 -16z"/>
<path d="M4316 155 c-10 -26 -7 -63 5 -71 16 -10 30 16 27 50 -3 33 -22 45
-32 21z"/>
</g>
</svg>
